<svg version="1.1" viewBox="0.0 0.0 600.0 371.0" fill="none" stroke="none" stroke-linecap="square" stroke-miterlimit="10" width="600" height="371" xmlns:xlink="http://www.w3.org/1999/xlink" xmlns="http://www.w3.org/2000/svg"><path fill="#ffffff" d="M0 0L600.0 0L600.0 371.0L0 371.0L0 0Z" fill-rule="nonzero"/><path stroke="#333333" stroke-width="1.0" stroke-linecap="butt" d="M48.5 331.5L581.5 331.5" fill-rule="nonzero"/><path stroke="#cccccc" stroke-width="1.0" stroke-linecap="butt" d="M48.5 279.5L581.5 279.5" fill-rule="nonzero"/><path stroke="#cccccc" stroke-width="1.0" stroke-linecap="butt" d="M48.5 227.5L581.5 227.5" fill-rule="nonzero"/><path stroke="#cccccc" stroke-width="1.0" stroke-linecap="butt" d="M48.5 176.5L581.5 176.5" fill-rule="nonzero"/><path stroke="#cccccc" stroke-width="1.0" stroke-linecap="butt" d="M48.5 124.5L581.5 124.5" fill-rule="nonzero"/><path stroke="#cccccc" stroke-width="1.0" stroke-linecap="butt" d="M48.5 72.5L581.5 72.5" fill-rule="nonzero"/><clipPath id="id_0"><path d="M48.55 72.416664L581.45 72.416664L581.45 331.45L48.55 331.45L48.55 72.416664Z" clip-rule="nonzero"/></clipPath><path stroke="#4285f4" stroke-width="2.0" stroke-linecap="butt" clip-path="url(#id_0)" d="M81.85625 322.0823L148.46875 328.3673L215.08125 327.30237L281.69376 326.28964L348.30624 319.08044L414.91876 313.80588L481.53125 297.50317L548.14374 297.07626" fill-rule="nonzero"/><path stroke="#db4437" stroke-width="2.0" stroke-linecap="butt" clip-path="url(#id_0)" d="M81.85625 318.27972L148.46875 328.0575L215.08125 324.51556L281.69376 323.03265L348.30624 315.04843L414.91876 310.6142L481.53125 271.605L548.14374 259.51" fill-rule="nonzero"/><path stroke="#f4b400" stroke-width="2.0" stroke-linecap="butt" clip-path="url(#id_0)" d="M81.85625 289.9628L148.46875 327.10736L215.08125 322.74213L281.69376 315.1106L348.30624 310.73688L414.91876 126.32109L481.53125 98.971725L548.14374 92.1175" fill-rule="nonzero"/><path fill="#000000" fill-opacity="0.0" clip-path="url(#id_0)" d="M84.85625 322.0823C84.85625 323.73917 83.51311 325.0823 81.85625 325.0823C80.199394 325.0823 78.85625 323.73917 78.85625 322.0823C78.85625 320.42548 80.199394 319.0823 81.85625 319.0823C83.51311 319.0823 84.85625 320.42548 84.85625 322.0823Z" fill-rule="nonzero"/><path fill="#000000" fill-opacity="0.0" clip-path="url(#id_0)" d="M151.46875 328.3673C151.46875 330.02414 150.12561 331.3673 148.46875 331.3673C146.81189 331.3673 145.46875 330.02414 145.46875 328.3673C145.46875 326.71045 146.81189 325.3673 148.46875 325.3673C150.12561 325.3673 151.46875 326.71045 151.46875 328.3673Z" fill-rule="nonzero"/><path fill="#000000" fill-opacity="0.0" clip-path="url(#id_0)" d="M218.08125 327.30237C218.08125 328.9592 216.7381 330.30237 215.08125 330.30237C213.4244 330.30237 212.08125 328.9592 212.08125 327.30237C212.08125 325.6455 213.4244 324.30237 215.08125 324.30237C216.7381 324.30237 218.08125 325.6455 218.08125 327.30237Z" fill-rule="nonzero"/><path fill="#000000" fill-opacity="0.0" clip-path="url(#id_0)" d="M284.69376 326.28964C284.69376 327.9465 283.35062 329.28964 281.69376 329.28964C280.0369 329.28964 278.69376 327.9465 278.69376 326.28964C278.69376 324.63278 280.0369 323.28964 281.69376 323.28964C283.35062 323.28964 284.69376 324.63278 284.69376 326.28964Z" fill-rule="nonzero"/><path fill="#000000" fill-opacity="0.0" clip-path="url(#id_0)" d="M351.30624 319.08044C351.30624 320.73727 349.9631 322.08044 348.30624 322.08044C346.64938 322.08044 345.30624 320.73727 345.30624 319.08044C345.30624 317.42358 346.64938 316.08044 348.30624 316.08044C349.9631 316.08044 351.30624 317.42358 351.30624 319.08044Z" fill-rule="nonzero"/><path fill="#000000" fill-opacity="0.0" clip-path="url(#id_0)" d="M417.91876 313.80588C417.91876 315.46274 416.5756 316.80588 414.91876 316.80588C413.2619 316.80588 411.91876 315.46274 411.91876 313.80588C411.91876 312.14905 413.2619 310.80588 414.91876 310.80588C416.5756 310.80588 417.91876 312.14905 417.91876 313.80588Z" fill-rule="nonzero"/><path fill="#000000" fill-opacity="0.0" clip-path="url(#id_0)" d="M484.53125 297.50317C484.53125 299.16 483.1881 300.50317 481.53125 300.50317C479.8744 300.50317 478.53125 299.16 478.53125 297.50317C478.53125 295.8463 479.8744 294.50317 481.53125 294.50317C483.1881 294.50317 484.53125 295.8463 484.53125 297.50317Z" fill-rule="nonzero"/><path fill="#000000" fill-opacity="0.0" clip-path="url(#id_0)" d="M551.14374 297.07626C551.14374 298.73312 549.8006 300.07626 548.14374 300.07626C546.4869 300.07626 545.14374 298.73312 545.14374 297.07626C545.14374 295.41943 546.4869 294.07626 548.14374 294.07626C549.8006 294.07626 551.14374 295.41943 551.14374 297.07626Z" fill-rule="nonzero"/><path fill="#000000" fill-opacity="0.0" clip-path="url(#id_0)" d="M84.85625 318.27972C84.85625 319.93655 83.51311 321.27972 81.85625 321.27972C80.199394 321.27972 78.85625 319.93655 78.85625 318.27972C78.85625 316.62286 80.199394 315.27972 81.85625 315.27972C83.51311 315.27972 84.85625 316.62286 84.85625 318.27972Z" fill-rule="nonzero"/><path fill="#000000" fill-opacity="0.0" clip-path="url(#id_0)" d="M151.46875 328.0575C151.46875 329.71436 150.12561 331.0575 148.46875 331.0575C146.81189 331.0575 145.46875 329.71436 145.46875 328.0575C145.46875 326.40063 146.81189 325.0575 148.46875 325.0575C150.12561 325.0575 151.46875 326.40063 151.46875 328.0575Z" fill-rule="nonzero"/><path fill="#000000" fill-opacity="0.0" clip-path="url(#id_0)" d="M218.08125 324.51556C218.08125 326.17242 216.7381 327.51556 215.08125 327.51556C213.4244 327.51556 212.08125 326.17242 212.08125 324.51556C212.08125 322.85873 213.4244 321.51556 215.08125 321.51556C216.7381 321.51556 218.08125 322.85873 218.08125 324.51556Z" fill-rule="nonzero"/><path fill="#000000" fill-opacity="0.0" clip-path="url(#id_0)" d="M284.69376 323.03265C284.69376 324.6895 283.35062 326.03265 281.69376 326.03265C280.0369 326.03265 278.69376 324.6895 278.69376 323.03265C278.69376 321.3758 280.0369 320.03265 281.69376 320.03265C283.35062 320.03265 284.69376 321.3758 284.69376 323.03265Z" fill-rule="nonzero"/><path fill="#000000" fill-opacity="0.0" clip-path="url(#id_0)" d="M351.30624 315.04843C351.30624 316.7053 349.9631 318.04843 348.30624 318.04843C346.64938 318.04843 345.30624 316.7053 345.30624 315.04843C345.30624 313.39157 346.64938 312.04843 348.30624 312.04843C349.9631 312.04843 351.30624 313.39157 351.30624 315.04843Z" fill-rule="nonzero"/><path fill="#000000" fill-opacity="0.0" clip-path="url(#id_0)" d="M417.91876 310.6142C417.91876 312.27103 416.5756 313.6142 414.91876 313.6142C413.2619 313.6142 411.91876 312.27103 411.91876 310.6142C411.91876 308.95734 413.2619 307.6142 414.91876 307.6142C416.5756 307.6142 417.91876 308.95734 417.91876 310.6142Z" fill-rule="nonzero"/><path fill="#000000" fill-opacity="0.0" clip-path="url(#id_0)" d="M484.53125 271.605C484.53125 273.26187 483.1881 274.605 481.53125 274.605C479.8744 274.605 478.53125 273.26187 478.53125 271.605C478.53125 269.94815 479.8744 268.605 481.53125 268.605C483.1881 268.605 484.53125 269.94815 484.53125 271.605Z" fill-rule="nonzero"/><path fill="#000000" fill-opacity="0.0" clip-path="url(#id_0)" d="M551.14374 259.51C551.14374 261.16687 549.8006 262.51 548.14374 262.51C546.4869 262.51 545.14374 261.16687 545.14374 259.51C545.14374 257.85318 546.4869 256.51 548.14374 256.51C549.8006 256.51 551.14374 257.85318 551.14374 259.51Z" fill-rule="nonzero"/><path fill="#000000" fill-opacity="0.0" clip-path="url(#id_0)" d="M84.85625 289.9628C84.85625 291.61966 83.51311 292.9628 81.85625 292.9628C80.199394 292.9628 78.85625 291.61966 78.85625 289.9628C78.85625 288.30594 80.199394 286.9628 81.85625 286.9628C83.51311 286.9628 84.85625 288.30594 84.85625 289.9628Z" fill-rule="nonzero"/><path fill="#000000" fill-opacity="0.0" clip-path="url(#id_0)" d="M151.46875 327.10736C151.46875 328.76422 150.12561 330.10736 148.46875 330.10736C146.81189 330.10736 145.46875 328.76422 145.46875 327.10736C145.46875 325.4505 146.81189 324.10736 148.46875 324.10736C150.12561 324.10736 151.46875 325.4505 151.46875 327.10736Z" fill-rule="nonzero"/><path fill="#000000" fill-opacity="0.0" clip-path="url(#id_0)" d="M218.08125 322.74213C218.08125 324.399 216.7381 325.74213 215.08125 325.74213C213.4244 325.74213 212.08125 324.399 212.08125 322.74213C212.08125 321.08527 213.4244 319.74213 215.08125 319.74213C216.7381 319.74213 218.08125 321.08527 218.08125 322.74213Z" fill-rule="nonzero"/><path fill="#000000" fill-opacity="0.0" clip-path="url(#id_0)" d="M284.69376 315.1106C284.69376 316.76746 283.35062 318.1106 281.69376 318.1106C280.0369 318.1106 278.69376 316.76746 278.69376 315.1106C278.69376 313.45374 280.0369 312.1106 281.69376 312.1106C283.35062 312.1106 284.69376 313.45374 284.69376 315.1106Z" fill-rule="nonzero"/><path fill="#000000" fill-opacity="0.0" clip-path="url(#id_0)" d="M351.30624 310.73688C351.30624 312.3937 349.9631 313.73688 348.30624 313.73688C346.64938 313.73688 345.30624 312.3937 345.30624 310.73688C345.30624 309.08002 346.64938 307.73688 348.30624 307.73688C349.9631 307.73688 351.30624 309.08002 351.30624 310.73688Z" fill-rule="nonzero"/><path fill="#000000" fill-opacity="0.0" clip-path="url(#id_0)" d="M417.91876 126.32109C417.91876 127.97794 416.5756 129.32109 414.91876 129.32109C413.2619 129.32109 411.91876 127.97794 411.91876 126.32109C411.91876 124.66424 413.2619 123.32109 414.91876 123.32109C416.5756 123.32109 417.91876 124.66424 417.91876 126.32109Z" fill-rule="nonzero"/><path fill="#000000" fill-opacity="0.0" clip-path="url(#id_0)" d="M484.53125 98.971725C484.53125 100.628586 483.1881 101.971725 481.53125 101.971725C479.8744 101.971725 478.53125 100.628586 478.53125 98.971725C478.53125 97.31487 479.8744 95.971725 481.53125 95.971725C483.1881 95.971725 484.53125 97.31487 484.53125 98.971725Z" fill-rule="nonzero"/><path fill="#000000" fill-opacity="0.0" clip-path="url(#id_0)" d="M551.14374 92.1175C551.14374 93.77435 549.8006 95.1175 548.14374 95.1175C546.4869 95.1175 545.14374 93.77435 545.14374 92.1175C545.14374 90.46065 546.4869 89.1175 548.14374 89.1175C549.8006 89.1175 551.14374 90.46065 551.14374 92.1175Z" fill-rule="nonzero"/><path fill="#757575" d="M24.6125 332.3094Q24.6125 334.21564 23.95625 335.15314Q23.315624 336.075 21.925 336.075Q20.565624 336.075 19.909374 335.16876Q19.253124 334.2625 19.221874 332.45L19.221874 331.0125Q19.221874 329.1219 19.8625 328.21564Q20.51875 327.29376 21.909374 327.29376Q23.284374 327.29376 23.940624 328.1844Q24.596874 329.0594 24.6125 330.90314L24.6125 332.3094ZM23.51875 330.825Q23.51875 329.45 23.128124 328.825Q22.753124 328.1844 21.909374 328.1844Q21.08125 328.1844 20.690624 328.825Q20.315624 329.45 20.315624 330.7469L20.315624 332.48126Q20.315624 333.85626 20.70625 334.52814Q21.1125 335.1844 21.925 335.1844Q22.721874 335.1844 23.1125 334.5594Q23.503124 333.9344 23.51875 332.60626L23.51875 330.825ZM26.39375 335.3875Q26.39375 335.10626 26.55 334.91876Q26.721874 334.73126 27.05 334.73126Q27.39375 334.73126 27.565624 334.91876Q27.7375 335.10626 27.7375 335.3875Q27.7375 335.65314 27.565624 335.84064Q27.39375 336.0125 27.05 336.0125Q26.721874 336.0125 26.55 335.84064Q26.39375 335.65314 26.39375 335.3875ZM34.6125 332.3094Q34.6125 334.21564 33.95625 335.15314Q33.315624 336.075 31.925 336.075Q30.565624 336.075 29.909374 335.16876Q29.253124 334.2625 29.221874 332.45L29.221874 331.0125Q29.221874 329.1219 29.8625 328.21564Q30.51875 327.29376 31.909374 327.29376Q33.284374 327.29376 33.940624 328.1844Q34.596874 329.0594 34.6125 330.90314L34.6125 332.3094ZM33.51875 330.825Q33.51875 329.45 33.128124 328.825Q32.753124 328.1844 31.909374 328.1844Q31.08125 328.1844 30.690624 328.825Q30.315624 329.45 30.315624 330.7469L30.315624 332.48126Q30.315624 333.85626 30.70625 334.52814Q31.1125 335.1844 31.925 335.1844Q32.721874 335.1844 33.1125 334.5594Q33.503124 333.9344 33.51875 332.60626L33.51875 330.825ZM41.6125 332.3094Q41.6125 334.21564 40.95625 335.15314Q40.315624 336.075 38.925 336.075Q37.565624 336.075 36.909374 335.16876Q36.253124 334.2625 36.221874 332.45L36.221874 331.0125Q36.221874 329.1219 36.8625 328.21564Q37.51875 327.29376 38.909374 327.29376Q40.284374 327.29376 40.940624 328.1844Q41.596874 329.0594 41.6125 330.90314L41.6125 332.3094ZM40.51875 330.825Q40.51875 329.45 40.128124 328.825Q39.753124 328.1844 38.909374 328.1844Q38.08125 328.1844 37.690624 328.825Q37.315624 329.45 37.315624 330.7469L37.315624 332.48126Q37.315624 333.85626 37.70625 334.52814Q38.1125 335.1844 38.925 335.1844Q39.721874 335.1844 40.1125 334.5594Q40.503124 333.9344 40.51875 332.60626L40.51875 330.825Z" fill-rule="nonzero"/><path fill="#757575" d="M24.6125 280.50272Q24.6125 282.40897 23.95625 283.34647Q23.315624 284.26834 21.925 284.26834Q20.565624 284.26834 19.909374 283.3621Q19.253124 282.45584 19.221874 280.64334L19.221874 279.20584Q19.221874 277.31522 19.8625 276.40897Q20.51875 275.4871 21.909374 275.4871Q23.284374 275.4871 23.940624 276.37772Q24.596874 277.25272 24.6125 279.09647L24.6125 280.50272ZM23.51875 279.01834Q23.51875 277.64334 23.128124 277.01834Q22.753124 276.37772 21.909374 276.37772Q21.08125 276.37772 20.690624 277.01834Q20.315624 277.64334 20.315624 278.94022L20.315624 280.6746Q20.315624 282.0496 20.70625 282.72147Q21.1125 283.37772 21.925 283.37772Q22.721874 283.37772 23.1125 282.75272Q23.503124 282.12772 23.51875 280.7996L23.51875 279.01834ZM26.39375 283.58084Q26.39375 283.2996 26.55 283.1121Q26.721874 282.9246 27.05 282.9246Q27.39375 282.9246 27.565624 283.1121Q27.7375 283.2996 27.7375 283.58084Q27.7375 283.84647 27.565624 284.03397Q27.39375 284.20584 27.05 284.20584Q26.721874 284.20584 26.55 284.03397Q26.39375 283.84647 26.39375 283.58084ZM34.846874 284.14334L29.253124 284.14334L29.253124 283.3621L32.20625 280.08084Q32.8625 279.33084 33.1125 278.87772Q33.3625 278.40897 33.3625 277.90897Q33.3625 277.2371 32.95625 276.81522Q32.565624 276.37772 31.878124 276.37772Q31.08125 276.37772 30.628124 276.84647Q30.175 277.2996 30.175 278.12772L29.096874 278.12772Q29.096874 276.94022 29.846874 276.22147Q30.6125 275.4871 31.878124 275.4871Q33.08125 275.4871 33.76875 276.1121Q34.45625 276.7371 34.45625 277.78397Q34.45625 279.03397 32.846874 280.78397L30.565624 283.25272L34.846874 283.25272L34.846874 284.14334ZM36.753124 279.8621L37.190624 275.6121L41.565624 275.6121L41.565624 276.6121L38.1125 276.6121L37.846874 278.94022Q38.4875 278.56522 39.284374 278.56522Q40.440624 278.56522 41.128124 279.34647Q41.815624 280.1121 41.815624 281.4246Q41.815624 282.7371 41.096874 283.50272Q40.39375 284.26834 39.1125 284.26834Q37.9875 284.26834 37.26875 283.64334Q36.55 283.00272 36.45625 281.89334L37.471874 281.89334Q37.58125 282.62772 38.003124 283.00272Q38.425 283.37772 39.1125 283.37772Q39.8625 283.37772 40.3 282.8621Q40.7375 282.34647 40.7375 281.44022Q40.7375 280.58084 40.26875 280.06522Q39.8 279.5496 39.01875 279.5496Q38.315624 279.5496 37.909374 279.84647L37.628124 280.08084L36.753124 279.8621Z" fill-rule="nonzero"/><path fill="#757575" d="M24.6125 228.69604Q24.6125 230.6023 23.95625 231.5398Q23.315624 232.46167 21.925 232.46167Q20.565624 232.46167 19.909374 231.55542Q19.253124 230.64917 19.221874 228.83667L19.221874 227.39917Q19.221874 225.50854 19.8625 224.6023Q20.51875 223.68042 21.909374 223.68042Q23.284374 223.68042 23.940624 224.57104Q24.596874 225.44604 24.6125 227.2898L24.6125 228.69604ZM23.51875 227.21167Q23.51875 225.83667 23.128124 225.21167Q22.753124 224.57104 21.909374 224.57104Q21.08125 224.57104 20.690624 225.21167Q20.315624 225.83667 20.315624 227.13354L20.315624 228.86792Q20.315624 230.24292 20.70625 230.9148Q21.1125 231.57104 21.925 231.57104Q22.721874 231.57104 23.1125 230.94604Q23.503124 230.32104 23.51875 228.99292L23.51875 227.21167ZM26.39375 231.77417Q26.39375 231.49292 26.55 231.30542Q26.721874 231.11792 27.05 231.11792Q27.39375 231.11792 27.565624 231.30542Q27.7375 231.49292 27.7375 231.77417Q27.7375 232.0398 27.565624 232.2273Q27.39375 232.39917 27.05 232.39917Q26.721874 232.39917 26.55 232.2273Q26.39375 232.0398 26.39375 231.77417ZM29.753124 228.05542L30.190624 223.80542L34.565624 223.80542L34.565624 224.80542L31.1125 224.80542L30.846874 227.13354Q31.4875 226.75854 32.284374 226.75854Q33.440624 226.75854 34.128124 227.5398Q34.815624 228.30542 34.815624 229.61792Q34.815624 230.93042 34.096874 231.69604Q33.39375 232.46167 32.1125 232.46167Q30.9875 232.46167 30.26875 231.83667Q29.55 231.19604 29.45625 230.08667L30.471874 230.08667Q30.58125 230.82104 31.003124 231.19604Q31.425 231.57104 32.1125 231.57104Q32.8625 231.57104 33.3 231.05542Q33.7375 230.5398 33.7375 229.63354Q33.7375 228.77417 33.26875 228.25854Q32.8 227.74292 32.01875 227.74292Q31.315624 227.74292 30.909374 228.0398L30.628124 228.27417L29.753124 228.05542ZM41.6125 228.69604Q41.6125 230.6023 40.95625 231.5398Q40.315624 232.46167 38.925 232.46167Q37.565624 232.46167 36.909374 231.55542Q36.253124 230.64917 36.221874 228.83667L36.221874 227.39917Q36.221874 225.50854 36.8625 224.6023Q37.51875 223.68042 38.909374 223.68042Q40.284374 223.68042 40.940624 224.57104Q41.596874 225.44604 41.6125 227.2898L41.6125 228.69604ZM40.51875 227.21167Q40.51875 225.83667 40.128124 225.21167Q39.753124 224.57104 38.909374 224.57104Q38.08125 224.57104 37.690624 225.21167Q37.315624 225.83667 37.315624 227.13354L37.315624 228.86792Q37.315624 230.24292 37.70625 230.9148Q38.1125 231.57104 38.925 231.57104Q39.721874 231.57104 40.1125 230.94604Q40.503124 230.32104 40.51875 228.99292L40.51875 227.21167Z" fill-rule="nonzero"/><path fill="#757575" d="M24.6125 176.88937Q24.6125 178.79562 23.95625 179.73312Q23.315624 180.655 21.925 180.655Q20.565624 180.655 19.909374 179.74875Q19.253124 178.8425 19.221874 177.03L19.221874 175.5925Q19.221874 173.70187 19.8625 172.79562Q20.51875 171.87375 21.909374 171.87375Q23.284374 171.87375 23.940624 172.76437Q24.596874 173.63937 24.6125 175.48312L24.6125 176.88937ZM23.51875 175.405Q23.51875 174.03 23.128124 173.405Q22.753124 172.76437 21.909374 172.76437Q21.08125 172.76437 20.690624 173.405Q20.315624 174.03 20.315624 175.32687L20.315624 177.06125Q20.315624 178.43625 20.70625 179.10812Q21.1125 179.76437 21.925 179.76437Q22.721874 179.76437 23.1125 179.13937Q23.503124 178.51437 23.51875 177.18625L23.51875 175.405ZM26.39375 179.9675Q26.39375 179.68625 26.55 179.49875Q26.721874 179.31125 27.05 179.31125Q27.39375 179.31125 27.565624 179.49875Q27.7375 179.68625 27.7375 179.9675Q27.7375 180.23312 27.565624 180.42062Q27.39375 180.5925 27.05 180.5925Q26.721874 180.5925 26.55 180.42062Q26.39375 180.23312 26.39375 179.9675ZM34.76875 172.60812L31.2375 180.53L30.096874 180.53L33.6125 172.88937L29.003124 172.88937L29.003124 171.99875L34.76875 171.99875L34.76875 172.60812ZM36.753124 176.24875L37.190624 171.99875L41.565624 171.99875L41.565624 172.99875L38.1125 172.99875L37.846874 175.32687Q38.4875 174.95187 39.284374 174.95187Q40.440624 174.95187 41.128124 175.73312Q41.815624 176.49875 41.815624 177.81125Q41.815624 179.12375 41.096874 179.88937Q40.39375 180.655 39.1125 180.655Q37.9875 180.655 37.26875 180.03Q36.55 179.38937 36.45625 178.28L37.471874 178.28Q37.58125 179.01437 38.003124 179.38937Q38.425 179.76437 39.1125 179.76437Q39.8625 179.76437 40.3 179.24875Q40.7375 178.73312 40.7375 177.82687Q40.7375 176.9675 40.26875 176.45187Q39.8 175.93625 39.01875 175.93625Q38.315624 175.93625 37.909374 176.23312L37.628124 176.4675L36.753124 176.24875Z" fill-rule="nonzero"/><path fill="#757575" d="M22.815624 128.72333L21.7375 128.72333L21.7375 121.50458L19.55 122.30145L19.55 121.31708L22.659374 120.1452L22.815624 120.1452L22.815624 128.72333ZM26.39375 128.16083Q26.39375 127.87958 26.55 127.69208Q26.721874 127.50458 27.05 127.50458Q27.39375 127.50458 27.565624 127.69208Q27.7375 127.87958 27.7375 128.16083Q27.7375 128.42645 27.565624 128.61395Q27.39375 128.78583 27.05 128.78583Q26.721874 128.78583 26.55 128.61395Q26.39375 128.42645 26.39375 128.16083ZM34.6125 125.0827Q34.6125 126.98895 33.95625 127.92645Q33.315624 128.84833 31.925 128.84833Q30.565624 128.84833 29.909374 127.94208Q29.253124 127.03583 29.221874 125.22333L29.221874 123.78583Q29.221874 121.8952 29.8625 120.98895Q30.51875 120.06708 31.909374 120.06708Q33.284374 120.06708 33.940624 120.9577Q34.596874 121.8327 34.6125 123.67645L34.6125 125.0827ZM33.51875 123.59833Q33.51875 122.22333 33.128124 121.59833Q32.753124 120.9577 31.909374 120.9577Q31.08125 120.9577 30.690624 121.59833Q30.315624 122.22333 30.315624 123.5202L30.315624 125.25458Q30.315624 126.62958 30.70625 127.30145Q31.1125 127.9577 31.925 127.9577Q32.721874 127.9577 33.1125 127.3327Q33.503124 126.7077 33.51875 125.37958L33.51875 123.59833ZM41.6125 125.0827Q41.6125 126.98895 40.95625 127.92645Q40.315624 128.84833 38.925 128.84833Q37.565624 128.84833 36.909374 127.94208Q36.253124 127.03583 36.221874 125.22333L36.221874 123.78583Q36.221874 121.8952 36.8625 120.98895Q37.51875 120.06708 38.909374 120.06708Q40.284374 120.06708 40.940624 120.9577Q41.596874 121.8327 41.6125 123.67645L41.6125 125.0827ZM40.51875 123.59833Q40.51875 122.22333 40.128124 121.59833Q39.753124 120.9577 38.909374 120.9577Q38.08125 120.9577 37.690624 121.59833Q37.315624 122.22333 37.315624 123.5202L37.315624 125.25458Q37.315624 126.62958 37.70625 127.30145Q38.1125 127.9577 38.925 127.9577Q39.721874 127.9577 40.1125 127.3327Q40.503124 126.7077 40.51875 125.37958L40.51875 123.59833Z" fill-rule="nonzero"/><path fill="#757575" d="M22.815624 76.916664L21.7375 76.916664L21.7375 69.697914L19.55 70.49479L19.55 69.510414L22.659374 68.33854L22.815624 68.33854L22.815624 76.916664ZM26.39375 76.354164Q26.39375 76.072914 26.55 75.885414Q26.721874 75.697914 27.05 75.697914Q27.39375 75.697914 27.565624 75.885414Q27.7375 76.072914 27.7375 76.354164Q27.7375 76.61979 27.565624 76.80729Q27.39375 76.979164 27.05 76.979164Q26.721874 76.979164 26.55 76.80729Q26.39375 76.61979 26.39375 76.354164ZM34.846874 76.916664L29.253124 76.916664L29.253124 76.135414L32.20625 72.854164Q32.8625 72.104164 33.1125 71.65104Q33.3625 71.18229 33.3625 70.68229Q33.3625 70.010414 32.95625 69.58854Q32.565624 69.15104 31.878124 69.15104Q31.08125 69.15104 30.628124 69.61979Q30.175 70.072914 30.175 70.90104L29.096874 70.90104Q29.096874 69.71354 29.846874 68.99479Q30.6125 68.260414 31.878124 68.260414Q33.08125 68.260414 33.76875 68.885414Q34.45625 69.510414 34.45625 70.55729Q34.45625 71.80729 32.846874 73.55729L30.565624 76.02604L34.846874 76.02604L34.846874 76.916664ZM36.753124 72.635414L37.190624 68.385414L41.565624 68.385414L41.565624 69.385414L38.1125 69.385414L37.846874 71.71354Q38.4875 71.33854 39.284374 71.33854Q40.440624 71.33854 41.128124 72.11979Q41.815624 72.885414 41.815624 74.197914Q41.815624 75.510414 41.096874 76.27604Q40.39375 77.041664 39.1125 77.041664Q37.9875 77.041664 37.26875 76.416664Q36.55 75.77604 36.45625 74.666664L37.471874 74.666664Q37.58125 75.40104 38.003124 75.77604Q38.425 76.15104 39.1125 76.15104Q39.8625 76.15104 40.3 75.635414Q40.7375 75.11979 40.7375 74.21354Q40.7375 73.354164 40.26875 72.83854Q39.8 72.322914 39.01875 72.322914Q38.315624 72.322914 37.909374 72.61979L37.628124 72.854164L36.753124 72.635414Z" fill-rule="nonzero"/><path fill="#757575" d="M76.59062 349.45Q76.49687 349.2625 76.43437 348.77814Q75.68437 349.575 74.6375 349.575Q73.7 349.575 73.09062 349.04376Q72.49687 348.5125 72.49687 347.6844Q72.49687 346.7 73.24687 346.15314Q73.99687 345.60626 75.37187 345.60626L76.41875 345.60626L76.41875 345.10626Q76.41875 344.54376 76.075 344.21564Q75.74687 343.8719 75.075 343.8719Q74.49687 343.8719 74.10625 344.16876Q73.71562 344.45 73.71562 344.8719L72.62187 344.8719Q72.62187 344.3875 72.95 343.95Q73.29375 343.5125 73.87187 343.2625Q74.45 342.9969 75.1375 342.9969Q76.24687 342.9969 76.85625 343.54376Q77.48125 344.09064 77.5125 345.04376L77.5125 347.96564Q77.5125 348.84064 77.73125 349.35626L77.73125 349.45L76.59062 349.45ZM74.79375 348.6219Q75.30937 348.6219 75.7625 348.35626Q76.21562 348.09064 76.41875 347.66876L76.41875 346.3719L75.575 346.3719Q73.575 346.3719 73.575 347.54376Q73.575 348.04376 73.91875 348.34064Q74.2625 348.6219 74.79375 348.6219ZM81.7625 347.98126L83.34062 343.10626L84.45 343.10626L82.16875 349.45L81.34062 349.45L79.04375 343.10626L80.15312 343.10626L81.7625 347.98126ZM85.41875 346.23126Q85.41875 344.7469 86.10625 343.8719Q86.79375 342.9969 87.91875 342.9969Q89.075 342.9969 89.73125 343.8094L89.77812 343.10626L90.77812 343.10626L90.77812 349.29376Q90.77812 350.52814 90.04375 351.23126Q89.30937 351.95 88.09062 351.95Q87.40312 351.95 86.74687 351.65314Q86.09062 351.35626 85.74687 350.85626L86.30937 350.2Q86.99687 351.0594 88.0125 351.0594Q88.79375 351.0594 89.23125 350.60626Q89.68437 350.16876 89.68437 349.35626L89.68437 348.8094Q89.02812 349.575 87.90312 349.575Q86.79375 349.575 86.10625 348.6844Q85.41875 347.77814 85.41875 346.23126ZM86.5125 346.35626Q86.5125 347.41876 86.95 348.04376Q87.3875 348.65314 88.18437 348.65314Q89.2 348.65314 89.68437 347.71564L89.68437 344.825Q89.18437 343.91876 88.18437 343.91876Q87.40312 343.91876 86.95 344.52814Q86.5125 345.1375 86.5125 346.35626Z" fill-rule="nonzero"/><path fill="#757575" d="M139.8125 343.10626L139.84375 343.8094Q140.53125 342.9969 141.71875 342.9969Q143.04688 342.9969 143.53125 344.0125Q143.84375 343.5594 144.34375 343.27814Q144.85938 342.9969 145.54688 342.9969Q147.64062 342.9969 147.67188 345.2L147.67188 349.45L146.59375 349.45L146.59375 345.2625Q146.59375 344.59064 146.28125 344.2625Q145.96875 343.91876 145.23438 343.91876Q144.625 343.91876 144.21875 344.27814Q143.82812 344.6375 143.76562 345.2469L143.76562 349.45L142.6875 349.45L142.6875 345.29376Q142.6875 343.91876 141.32812 343.91876Q140.26562 343.91876 139.875 344.825L139.875 349.45L138.78125 349.45L138.78125 343.10626L139.8125 343.10626ZM150.96875 349.45L149.89062 349.45L149.89062 343.10626L150.96875 343.10626L150.96875 349.45ZM149.79688 341.4344Q149.79688 341.16876 149.95312 340.98126Q150.125 340.79376 150.4375 340.79376Q150.75 340.79376 150.90625 340.98126Q151.07812 341.16876 151.07812 341.4344Q151.07812 341.6844 150.90625 341.8719Q150.75 342.04376 150.4375 342.04376Q150.125 342.04376 149.95312 341.8719Q149.79688 341.6844 149.79688 341.4344ZM153.8125 343.10626L153.84375 343.90314Q154.57812 342.9969 155.75 342.9969Q157.76562 342.9969 157.78125 345.2625L157.78125 349.45L156.6875 349.45L156.6875 345.2469Q156.6875 344.575 156.375 344.2469Q156.07812 343.91876 155.42188 343.91876Q154.89062 343.91876 154.48438 344.2Q154.09375 344.48126 153.875 344.9344L153.875 349.45L152.79688 349.45L152.79688 343.10626L153.8125 343.10626Z" fill-rule="nonzero"/><path fill="#757575" d="M210.75313 346.35626Q210.75313 347.79376 210.09688 348.6844Q209.44063 349.575 208.3 349.575Q207.14375 349.575 206.4875 348.84064L206.4875 351.8875L205.40938 351.8875L205.40938 343.10626L206.39375 343.10626L206.44063 343.8094Q207.1125 342.9969 208.28438 342.9969Q209.425 342.9969 210.08125 343.85626Q210.75313 344.71564 210.75313 346.2469L210.75313 346.35626ZM209.675 346.23126Q209.675 345.15314 209.20625 344.54376Q208.75313 343.91876 207.95625 343.91876Q206.97188 343.91876 206.4875 344.77814L206.4875 347.8094Q206.97188 348.6844 207.97188 348.6844Q208.75313 348.6844 209.20625 348.075Q209.675 347.45 209.675 346.23126ZM217.87813 349.45L212.28438 349.45L212.28438 348.66876L215.2375 345.3875Q215.89375 344.6375 216.14375 344.1844Q216.39375 343.71564 216.39375 343.21564Q216.39375 342.54376 215.9875 342.1219Q215.59688 341.6844 214.90938 341.6844Q214.1125 341.6844 213.65938 342.15314Q213.20625 342.60626 213.20625 343.4344L212.12813 343.4344Q212.12813 342.2469 212.87813 341.52814Q213.64375 340.79376 214.90938 340.79376Q216.1125 340.79376 216.8 341.41876Q217.4875 342.04376 217.4875 343.09064Q217.4875 344.34064 215.87813 346.09064L213.59688 348.5594L217.87813 348.5594L217.87813 349.45ZM219.78438 345.16876L220.22188 340.91876L224.59688 340.91876L224.59688 341.91876L221.14375 341.91876L220.87813 344.2469Q221.51875 343.8719 222.31563 343.8719Q223.47188 343.8719 224.15938 344.65314Q224.84688 345.41876 224.84688 346.73126Q224.84688 348.04376 224.12813 348.8094Q223.425 349.575 222.14375 349.575Q221.01875 349.575 220.3 348.95Q219.58125 348.3094 219.4875 347.2L220.50313 347.2Q220.6125 347.9344 221.03438 348.3094Q221.45625 348.6844 222.14375 348.6844Q222.89375 348.6844 223.33125 348.16876Q223.76875 347.65314 223.76875 346.7469Q223.76875 345.8875 223.3 345.3719Q222.83125 344.85626 222.05 344.85626Q221.34688 344.85626 220.94063 345.15314L220.65938 345.3875L219.78438 345.16876Z" fill-rule="nonzero"/><path fill="#757575" d="M277.36563 346.35626Q277.36563 347.79376 276.70938 348.6844Q276.05313 349.575 274.9125 349.575Q273.75626 349.575 273.1 348.84064L273.1 351.8875L272.02188 351.8875L272.02188 343.10626L273.00626 343.10626L273.05313 343.8094Q273.725 342.9969 274.89688 342.9969Q276.0375 342.9969 276.69376 343.85626Q277.36563 344.71564 277.36563 346.2469L277.36563 346.35626ZM276.2875 346.23126Q276.2875 345.15314 275.81876 344.54376Q275.36563 343.91876 274.56876 343.91876Q273.58438 343.91876 273.1 344.77814L273.1 347.8094Q273.58438 348.6844 274.58438 348.6844Q275.36563 348.6844 275.81876 348.075Q276.2875 347.45 276.2875 346.23126ZM279.39688 345.16876L279.83438 340.91876L284.20938 340.91876L284.20938 341.91876L280.75626 341.91876L280.49063 344.2469Q281.13126 343.8719 281.92813 343.8719Q283.08438 343.8719 283.77188 344.65314Q284.45938 345.41876 284.45938 346.73126Q284.45938 348.04376 283.74063 348.8094Q283.0375 349.575 281.75626 349.575Q280.63126 349.575 279.9125 348.95Q279.19376 348.3094 279.1 347.2L280.11563 347.2Q280.225 347.9344 280.64688 348.3094Q281.06876 348.6844 281.75626 348.6844Q282.50626 348.6844 282.94376 348.16876Q283.38126 347.65314 283.38126 346.7469Q283.38126 345.8875 282.9125 345.3719Q282.44376 344.85626 281.6625 344.85626Q280.95938 344.85626 280.55313 345.15314L280.27188 345.3875L279.39688 345.16876ZM291.25626 345.8094Q291.25626 347.71564 290.6 348.65314Q289.95938 349.575 288.56876 349.575Q287.20938 349.575 286.55313 348.66876Q285.89688 347.7625 285.86563 345.95L285.86563 344.5125Q285.86563 342.6219 286.50626 341.71564Q287.1625 340.79376 288.55313 340.79376Q289.92813 340.79376 290.58438 341.6844Q291.24063 342.5594 291.25626 344.40314L291.25626 345.8094ZM290.1625 344.325Q290.1625 342.95 289.77188 342.325Q289.39688 341.6844 288.55313 341.6844Q287.725 341.6844 287.33438 342.325Q286.95938 342.95 286.95938 344.2469L286.95938 345.98126Q286.95938 347.35626 287.35 348.02814Q287.75626 348.6844 288.56876 348.6844Q289.36563 348.6844 289.75626 348.0594Q290.14688 347.4344 290.1625 346.10626L290.1625 344.325Z" fill-rule="nonzero"/><path fill="#757575" d="M343.97812 346.35626Q343.97812 347.79376 343.32187 348.6844Q342.66562 349.575 341.525 349.575Q340.36874 349.575 339.7125 348.84064L339.7125 351.8875L338.63437 351.8875L338.63437 343.10626L339.61874 343.10626L339.66562 343.8094Q340.3375 342.9969 341.50937 342.9969Q342.65 342.9969 343.30624 343.85626Q343.97812 344.71564 343.97812 346.2469L343.97812 346.35626ZM342.9 346.23126Q342.9 345.15314 342.43124 344.54376Q341.97812 343.91876 341.18124 343.91876Q340.19687 343.91876 339.7125 344.77814L339.7125 347.8094Q340.19687 348.6844 341.19687 348.6844Q341.97812 348.6844 342.43124 348.075Q342.9 347.45 342.9 346.23126ZM351.025 341.52814L347.49374 349.45L346.35312 349.45L349.86874 341.8094L345.25937 341.8094L345.25937 340.91876L351.025 340.91876L351.025 341.52814ZM353.00937 345.16876L353.44687 340.91876L357.82187 340.91876L357.82187 341.91876L354.36874 341.91876L354.10312 344.2469Q354.74374 343.8719 355.54062 343.8719Q356.69687 343.8719 357.38437 344.65314Q358.07187 345.41876 358.07187 346.73126Q358.07187 348.04376 357.35312 348.8094Q356.65 349.575 355.36874 349.575Q354.24374 349.575 353.525 348.95Q352.80624 348.3094 352.7125 347.2L353.72812 347.2Q353.8375 347.9344 354.25937 348.3094Q354.68124 348.6844 355.36874 348.6844Q356.11874 348.6844 356.55624 348.16876Q356.99374 347.65314 356.99374 346.7469Q356.99374 345.8875 356.525 345.3719Q356.05624 344.85626 355.275 344.85626Q354.57187 344.85626 354.16562 345.15314L353.88437 345.3875L353.00937 345.16876Z" fill-rule="nonzero"/><path fill="#757575" d="M410.59064 346.35626Q410.59064 347.79376 409.9344 348.6844Q409.27814 349.575 408.1375 349.575Q406.98126 349.575 406.325 348.84064L406.325 351.8875L405.2469 351.8875L405.2469 343.10626L406.23126 343.10626L406.27814 343.8094Q406.95 342.9969 408.1219 342.9969Q409.2625 342.9969 409.91876 343.85626Q410.59064 344.71564 410.59064 346.2469L410.59064 346.35626ZM409.5125 346.23126Q409.5125 345.15314 409.04376 344.54376Q408.59064 343.91876 407.79376 343.91876Q406.8094 343.91876 406.325 344.77814L406.325 347.8094Q406.8094 348.6844 407.8094 348.6844Q408.59064 348.6844 409.04376 348.075Q409.5125 347.45 409.5125 346.23126ZM416.27814 345.7Q415.95 346.10626 415.46564 346.35626Q414.9969 346.59064 414.4344 346.59064Q413.7 346.59064 413.15314 346.23126Q412.60626 345.8719 412.3094 345.21564Q412.0125 344.54376 412.0125 343.7469Q412.0125 342.90314 412.325 342.21564Q412.65314 341.52814 413.2469 341.16876Q413.85626 340.79376 414.65314 340.79376Q415.91876 340.79376 416.6375 341.7469Q417.3719 342.7 417.3719 344.325L417.3719 344.6375Q417.3719 347.1375 416.3875 348.27814Q415.40314 349.41876 413.41876 349.45L413.2 349.45L413.2 348.54376L413.4344 348.54376Q414.77814 348.5125 415.4969 347.84064Q416.21564 347.16876 416.27814 345.7ZM414.60626 345.7Q415.15314 345.7 415.60626 345.3719Q416.075 345.02814 416.29376 344.54376L416.29376 344.10626Q416.29376 343.04376 415.825 342.3719Q415.35626 341.7 414.65314 341.7Q413.9344 341.7 413.4969 342.2469Q413.075 342.79376 413.075 343.7Q413.075 344.575 413.48126 345.1375Q413.90314 345.7 414.60626 345.7ZM424.48126 345.8094Q424.48126 347.71564 423.825 348.65314Q423.1844 349.575 421.79376 349.575Q420.4344 349.575 419.77814 348.66876Q419.1219 347.7625 419.09064 345.95L419.09064 344.5125Q419.09064 342.6219 419.73126 341.71564Q420.3875 340.79376 421.77814 340.79376Q423.15314 340.79376 423.8094 341.6844Q424.46564 342.5594 424.48126 344.40314L424.48126 345.8094ZM423.3875 344.325Q423.3875 342.95 422.9969 342.325Q422.6219 341.6844 421.77814 341.6844Q420.95 341.6844 420.5594 342.325Q420.1844 342.95 420.1844 344.2469L420.1844 345.98126Q420.1844 347.35626 420.575 348.02814Q420.98126 348.6844 421.79376 348.6844Q422.59064 348.6844 422.98126 348.0594Q423.3719 347.4344 423.3875 346.10626L423.3875 344.325Z" fill-rule="nonzero"/><path fill="#757575" d="M477.20312 346.35626Q477.20312 347.79376 476.54688 348.6844Q475.89062 349.575 474.75 349.575Q473.59375 349.575 472.9375 348.84064L472.9375 351.8875L471.85938 351.8875L471.85938 343.10626L472.84375 343.10626L472.89062 343.8094Q473.5625 342.9969 474.73438 342.9969Q475.875 342.9969 476.53125 343.85626Q477.20312 344.71564 477.20312 346.2469L477.20312 346.35626ZM476.125 346.23126Q476.125 345.15314 475.65625 344.54376Q475.20312 343.91876 474.40625 343.91876Q473.42188 343.91876 472.9375 344.77814L472.9375 347.8094Q473.42188 348.6844 474.42188 348.6844Q475.20312 348.6844 475.65625 348.075Q476.125 347.45 476.125 346.23126ZM482.89062 345.7Q482.5625 346.10626 482.07812 346.35626Q481.60938 346.59064 481.04688 346.59064Q480.3125 346.59064 479.76562 346.23126Q479.21875 345.8719 478.92188 345.21564Q478.625 344.54376 478.625 343.7469Q478.625 342.90314 478.9375 342.21564Q479.26562 341.52814 479.85938 341.16876Q480.46875 340.79376 481.26562 340.79376Q482.53125 340.79376 483.25 341.7469Q483.98438 342.7 483.98438 344.325L483.98438 344.6375Q483.98438 347.1375 483.0 348.27814Q482.01562 349.41876 480.03125 349.45L479.8125 349.45L479.8125 348.54376L480.04688 348.54376Q481.39062 348.5125 482.10938 347.84064Q482.82812 347.16876 482.89062 345.7ZM481.21875 345.7Q481.76562 345.7 482.21875 345.3719Q482.6875 345.02814 482.90625 344.54376L482.90625 344.10626Q482.90625 343.04376 482.4375 342.3719Q481.96875 341.7 481.26562 341.7Q480.54688 341.7 480.10938 342.2469Q479.6875 342.79376 479.6875 343.7Q479.6875 344.575 480.09375 345.1375Q480.51562 345.7 481.21875 345.7ZM489.89062 345.7Q489.5625 346.10626 489.07812 346.35626Q488.60938 346.59064 488.04688 346.59064Q487.3125 346.59064 486.76562 346.23126Q486.21875 345.8719 485.92188 345.21564Q485.625 344.54376 485.625 343.7469Q485.625 342.90314 485.9375 342.21564Q486.26562 341.52814 486.85938 341.16876Q487.46875 340.79376 488.26562 340.79376Q489.53125 340.79376 490.25 341.7469Q490.98438 342.7 490.98438 344.325L490.98438 344.6375Q490.98438 347.1375 490.0 348.27814Q489.01562 349.41876 487.03125 349.45L486.8125 349.45L486.8125 348.54376L487.04688 348.54376Q488.39062 348.5125 489.10938 347.84064Q489.82812 347.16876 489.89062 345.7ZM488.21875 345.7Q488.76562 345.7 489.21875 345.3719Q489.6875 345.02814 489.90625 344.54376L489.90625 344.10626Q489.90625 343.04376 489.4375 342.3719Q488.96875 341.7 488.26562 341.7Q487.54688 341.7 487.10938 342.2469Q486.6875 342.79376 486.6875 343.7Q486.6875 344.575 487.09375 345.1375Q487.51562 345.7 488.21875 345.7Z" fill-rule="nonzero"/><path fill="#757575" d="M537.9875 343.10626L538.01874 343.8094Q538.70624 342.9969 539.89374 342.9969Q541.22186 342.9969 541.70624 344.0125Q542.01874 343.5594 542.51874 343.27814Q543.03436 342.9969 543.72186 342.9969Q545.8156 342.9969 545.84686 345.2L545.84686 349.45L544.76874 349.45L544.76874 345.2625Q544.76874 344.59064 544.45624 344.2625Q544.14374 343.91876 543.40936 343.91876Q542.8 343.91876 542.39374 344.27814Q542.0031 344.6375 541.9406 345.2469L541.9406 349.45L540.8625 349.45L540.8625 345.29376Q540.8625 343.91876 539.5031 343.91876Q538.4406 343.91876 538.05 344.825L538.05 349.45L536.95624 349.45L536.95624 343.10626L537.9875 343.10626ZM551.8781 349.45Q551.78436 349.2625 551.72186 348.77814Q550.97186 349.575 549.925 349.575Q548.9875 349.575 548.3781 349.04376Q547.78436 348.5125 547.78436 347.6844Q547.78436 346.7 548.53436 346.15314Q549.28436 345.60626 550.65936 345.60626L551.70624 345.60626L551.70624 345.10626Q551.70624 344.54376 551.3625 344.21564Q551.03436 343.8719 550.3625 343.8719Q549.78436 343.8719 549.39374 344.16876Q549.0031 344.45 549.0031 344.8719L547.90936 344.8719Q547.90936 344.3875 548.2375 343.95Q548.58124 343.5125 549.15936 343.2625Q549.7375 342.9969 550.425 342.9969Q551.53436 342.9969 552.14374 343.54376Q552.76874 344.09064 552.8 345.04376L552.8 347.96564Q552.8 348.84064 553.01874 349.35626L553.01874 349.45L551.8781 349.45ZM550.08124 348.6219Q550.59686 348.6219 551.05 348.35626Q551.5031 348.09064 551.70624 347.66876L551.70624 346.3719L550.8625 346.3719Q548.8625 346.3719 548.8625 347.54376Q548.8625 348.04376 549.20624 348.34064Q549.55 348.6219 550.08124 348.6219ZM557.09686 345.41876L558.5031 343.10626L559.76874 343.10626L557.6906 346.2469L559.83124 349.45L558.58124 349.45L557.1125 347.075L555.64374 349.45L554.3781 349.45L556.51874 346.2469L554.45624 343.10626L555.70624 343.10626L557.09686 345.41876Z" fill-rule="nonzero"/><path stroke="#4285f4" stroke-width="4.0" stroke-linecap="butt" d="M67.5 26.05L79.5 26.05" fill-rule="nonzero"/><path fill="#757575" d="M89.625 29.628124L93.671875 29.628124L93.671875 30.55L88.484375 30.55L88.484375 22.01875L89.625 22.01875L89.625 29.628124ZM98.234375 30.55Q98.140625 30.3625 98.078125 29.878124Q97.328125 30.675 96.28125 30.675Q95.34375 30.675 94.734375 30.14375Q94.140625 29.6125 94.140625 28.784374Q94.140625 27.8 94.890625 27.253124Q95.640625 26.70625 97.015625 26.70625L98.0625 26.70625L98.0625 26.20625Q98.0625 25.64375 97.71875 25.315624Q97.390625 24.971874 96.71875 24.971874Q96.140625 24.971874 95.75 25.26875Q95.359375 25.55 95.359375 25.971874L94.265625 25.971874Q94.265625 25.4875 94.59375 25.05Q94.9375 24.6125 95.515625 24.3625Q96.09375 24.096874 96.78125 24.096874Q97.890625 24.096874 98.5 24.64375Q99.125 25.190624 99.15625 26.14375L99.15625 29.065624Q99.15625 29.940624 99.375 30.45625L99.375 30.55L98.234375 30.55ZM96.4375 29.721874Q96.953125 29.721874 97.40625 29.45625Q97.859375 29.190624 98.0625 28.76875L98.0625 27.471874L97.21875 27.471874Q95.21875 27.471874 95.21875 28.64375Q95.21875 29.14375 95.5625 29.440624Q95.90625 29.721874 96.4375 29.721874ZM102.796875 22.675L102.796875 24.20625L103.96875 24.20625L103.96875 25.05L102.796875 25.05L102.796875 28.971874Q102.796875 29.3625 102.953125 29.55Q103.109375 29.7375 103.484375 29.7375Q103.671875 29.7375 104.0 29.675L104.0 30.55Q103.578125 30.675 103.171875 30.675Q102.453125 30.675 102.078125 30.2375Q101.703125 29.784374 101.703125 28.971874L101.703125 25.05L100.546875 25.05L100.546875 24.20625L101.703125 24.20625L101.703125 22.675L102.796875 22.675ZM107.953125 30.675Q106.65625 30.675 105.84375 29.83125Q105.046875 28.971874 105.046875 27.55L105.046875 27.3625Q105.046875 26.409374 105.40625 25.675Q105.765625 24.925 106.40625 24.51875Q107.0625 24.096874 107.8125 24.096874Q109.046875 24.096874 109.734375 24.909374Q110.421875 25.721874 110.421875 27.2375L110.421875 27.690624L106.125 27.690624Q106.15625 28.628124 106.671875 29.20625Q107.203125 29.784374 108.015625 29.784374Q108.578125 29.784374 108.96875 29.55Q109.375 29.315624 109.6875 28.925L110.34375 29.440624Q109.546875 30.675 107.953125 30.675ZM107.8125 24.9875Q107.15625 24.9875 106.703125 25.471874Q106.265625 25.940624 106.171875 26.8L109.34375 26.8L109.34375 26.721874Q109.296875 25.89375 108.890625 25.440624Q108.5 24.9875 107.8125 24.9875ZM112.34375 24.20625L112.375 25.003124Q113.109375 24.096874 114.28125 24.096874Q116.296875 24.096874 116.3125 26.3625L116.3125 30.55L115.21875 30.55L115.21875 26.346874Q115.21875 25.675 114.90625 25.346874Q114.609375 25.01875 113.953125 25.01875Q113.421875 25.01875 113.015625 25.3Q112.625 25.58125 112.40625 26.034374L112.40625 30.55L111.328125 30.55L111.328125 24.20625L112.34375 24.20625ZM120.859375 29.784374Q121.4375 29.784374 121.875 29.440624Q122.3125 29.08125 122.359375 28.55L123.390625 28.55Q123.359375 29.096874 123.0 29.596874Q122.65625 30.08125 122.078125 30.378124Q121.515625 30.675 120.859375 30.675Q119.5625 30.675 118.796875 29.815624Q118.046875 28.940624 118.046875 27.440624L118.046875 27.253124Q118.046875 26.33125 118.375 25.6125Q118.71875 24.89375 119.34375 24.503124Q119.984375 24.096874 120.859375 24.096874Q121.921875 24.096874 122.625 24.7375Q123.34375 25.3625 123.390625 26.39375L122.359375 26.39375Q122.3125 25.76875 121.890625 25.378124Q121.46875 24.9875 120.859375 24.9875Q120.03125 24.9875 119.578125 25.58125Q119.125 26.175 119.125 27.3L119.125 27.503124Q119.125 28.596874 119.578125 29.190624Q120.03125 29.784374 120.859375 29.784374ZM126.390625 28.95625L127.875 24.20625L129.03125 24.20625L126.484375 31.534374Q125.890625 33.1125 124.609375 33.1125L124.390625 33.096874L124.0 33.01875L124.0 32.14375L124.28125 32.159374Q124.84375 32.159374 125.140625 31.940624Q125.453125 31.721874 125.65625 31.128124L125.890625 30.471874L123.625 24.20625L124.8125 24.20625L126.390625 28.95625ZM133.03125 27.315624Q133.03125 26.39375 133.39062 25.64375Q133.76562 24.89375 134.42188 24.503124Q135.07812 24.096874 135.90625 24.096874Q137.20312 24.096874 138.0 24.9875Q138.8125 25.878124 138.8125 27.378124L138.8125 27.45625Q138.8125 28.378124 138.45312 29.1125Q138.09375 29.846874 137.4375 30.26875Q136.78125 30.675 135.92188 30.675Q134.64062 30.675 133.82812 29.784374Q133.03125 28.878124 133.03125 27.39375L133.03125 27.315624ZM134.125 27.45625Q134.125 28.503124 134.60938 29.14375Q135.10938 29.784374 135.92188 29.784374Q136.75 29.784374 137.23438 29.14375Q137.71875 28.4875 137.71875 27.315624Q137.71875 26.284374 137.21875 25.64375Q136.73438 24.9875 135.90625 24.9875Q135.10938 24.9875 134.60938 25.628124Q134.125 26.253124 134.125 27.45625ZM140.85938 30.55L140.85938 25.05L139.85938 25.05L139.85938 24.20625L140.85938 24.20625L140.85938 23.565624Q140.85938 22.534374 141.39062 21.9875Q141.9375 21.425 142.9375 21.425Q143.3125 21.425 143.6875 21.51875L143.625 22.409374Q143.34375 22.346874 143.04688 22.346874Q142.51562 22.346874 142.21875 22.659374Q141.9375 22.971874 141.9375 23.534374L141.9375 24.20625L143.29688 24.20625L143.29688 25.05L141.9375 25.05L141.9375 30.55L140.85938 30.55ZM153.79688 29.425Q153.35938 30.05 152.57812 30.3625Q151.79688 30.675 150.76562 30.675Q149.73438 30.675 148.92188 30.190624Q148.10938 29.690624 147.67188 28.784374Q147.23438 27.878124 147.21875 26.690624L147.21875 25.95625Q147.21875 24.01875 148.10938 22.95625Q149.01562 21.89375 150.64062 21.89375Q151.98438 21.89375 152.79688 22.58125Q153.60938 23.26875 153.79688 24.51875L152.67188 24.51875Q152.34375 22.83125 150.65625 22.83125Q149.51562 22.83125 148.9375 23.628124Q148.35938 24.409374 148.34375 25.925L148.34375 26.6125Q148.34375 28.05 149.0 28.909374Q149.65625 29.753124 150.78125 29.753124Q151.40625 29.753124 151.875 29.6125Q152.35938 29.471874 152.67188 29.128124L152.67188 27.221874L150.70312 27.221874L150.70312 26.3L153.79688 26.3L153.79688 29.425ZM157.95312 30.675Q156.65625 30.675 155.84375 29.83125Q155.04688 28.971874 155.04688 27.55L155.04688 27.3625Q155.04688 26.409374 155.40625 25.675Q155.76562 24.925 156.40625 24.51875Q157.0625 24.096874 157.8125 24.096874Q159.04688 24.096874 159.73438 24.909374Q160.42188 25.721874 160.42188 27.2375L160.42188 27.690624L156.125 27.690624Q156.15625 28.628124 156.67188 29.20625Q157.20312 29.784374 158.01562 29.784374Q158.57812 29.784374 158.96875 29.55Q159.375 29.315624 159.6875 28.925L160.34375 29.440624Q159.54688 30.675 157.95312 30.675ZM157.8125 24.9875Q157.15625 24.9875 156.70312 25.471874Q156.26562 25.940624 156.17188 26.8L159.34375 26.8L159.34375 26.721874Q159.29688 25.89375 158.89062 25.440624Q158.5 24.9875 157.8125 24.9875ZM162.79688 22.675L162.79688 24.20625L163.96875 24.20625L163.96875 25.05L162.79688 25.05L162.79688 28.971874Q162.79688 29.3625 162.95312 29.55Q163.10938 29.7375 163.48438 29.7375Q163.67188 29.7375 164.0 29.675L164.0 30.55Q163.57812 30.675 163.17188 30.675Q162.45312 30.675 162.07812 30.2375Q161.70312 29.784374 161.70312 28.971874L161.70312 25.05L160.54688 25.05L160.54688 24.20625L161.70312 24.20625L161.70312 22.675L162.79688 22.675ZM172.04688 26.565624Q172.04688 27.815624 171.625 28.753124Q171.20312 29.675 170.42188 30.175Q169.65625 30.675 168.625 30.675Q167.625 30.675 166.84375 30.175Q166.0625 29.675 165.625 28.76875Q165.20312 27.846874 165.1875 26.628124L165.1875 26.01875Q165.1875 24.784374 165.60938 23.846874Q166.04688 22.909374 166.82812 22.409374Q167.60938 21.89375 168.625 21.89375Q169.64062 21.89375 170.42188 22.39375Q171.20312 22.89375 171.625 23.83125Q172.04688 24.76875 172.04688 26.01875L172.04688 26.565624ZM170.9375 26.003124Q170.9375 24.4875 170.32812 23.675Q169.71875 22.8625 168.625 22.8625Q167.54688 22.8625 166.9375 23.675Q166.32812 24.4875 166.3125 25.925L166.3125 26.565624Q166.3125 28.034374 166.92188 28.878124Q167.54688 29.70625 168.625 29.70625Q169.71875 29.70625 170.3125 28.925Q170.92188 28.128124 170.9375 26.64375L170.9375 26.003124ZM178.6875 27.45625Q178.6875 28.909374 178.01562 29.8Q177.35938 30.675 176.23438 30.675Q175.03125 30.675 174.375 29.815624L174.3125 30.55L173.32812 30.55L173.32812 21.55L174.40625 21.55L174.40625 24.909374Q175.0625 24.096874 176.21875 24.096874Q177.375 24.096874 178.03125 24.971874Q178.6875 25.83125 178.6875 27.3625L178.6875 27.45625ZM177.60938 27.33125Q177.60938 26.221874 177.17188 25.628124Q176.75 25.01875 175.95312 25.01875Q174.875 25.01875 174.40625 26.003124L174.40625 28.753124Q174.90625 29.753124 175.95312 29.753124Q176.73438 29.753124 177.17188 29.14375Q177.60938 28.534374 177.60938 27.33125ZM181.4375 24.20625L181.4375 31.284374Q181.4375 33.1125 179.78125 33.1125Q179.42188 33.1125 179.125 33.003124L179.125 32.14375Q179.3125 32.190624 179.60938 32.190624Q179.96875 32.190624 180.15625 31.9875Q180.35938 31.8 180.35938 31.3L180.35938 24.20625L181.4375 24.20625ZM180.25 22.534374Q180.25 22.26875 180.40625 22.08125Q180.5625 21.89375 180.875 21.89375Q181.1875 21.89375 181.34375 22.08125Q181.51562 22.26875 181.51562 22.534374Q181.51562 22.784374 181.34375 22.971874Q181.1875 23.14375 180.875 23.14375Q180.5625 23.14375 180.40625 22.971874Q180.25 22.784374 180.25 22.534374ZM185.95312 30.675Q184.65625 30.675 183.84375 29.83125Q183.04688 28.971874 183.04688 27.55L183.04688 27.3625Q183.04688 26.409374 183.40625 25.675Q183.76562 24.925 184.40625 24.51875Q185.0625 24.096874 185.8125 24.096874Q187.04688 24.096874 187.73438 24.909374Q188.42188 25.721874 188.42188 27.2375L188.42188 27.690624L184.125 27.690624Q184.15625 28.628124 184.67188 29.20625Q185.20312 29.784374 186.01562 29.784374Q186.57812 29.784374 186.96875 29.55Q187.375 29.315624 187.6875 28.925L188.34375 29.440624Q187.54688 30.675 185.95312 30.675ZM185.8125 24.9875Q185.15625 24.9875 184.70312 25.471874Q184.26562 25.940624 184.17188 26.8L187.34375 26.8L187.34375 26.721874Q187.29688 25.89375 186.89062 25.440624Q186.5 24.9875 185.8125 24.9875ZM191.85938 29.784374Q192.4375 29.784374 192.875 29.440624Q193.3125 29.08125 193.35938 28.55L194.39062 28.55Q194.35938 29.096874 194.0 29.596874Q193.65625 30.08125 193.07812 30.378124Q192.51562 30.675 191.85938 30.675Q190.5625 30.675 189.79688 29.815624Q189.04688 28.940624 189.04688 27.440624L189.04688 27.253124Q189.04688 26.33125 189.375 25.6125Q189.71875 24.89375 190.34375 24.503124Q190.98438 24.096874 191.85938 24.096874Q192.92188 24.096874 193.625 24.7375Q194.34375 25.3625 194.39062 26.39375L193.35938 26.39375Q193.3125 25.76875 192.89062 25.378124Q192.46875 24.9875 191.85938 24.9875Q191.03125 24.9875 190.57812 25.58125Q190.125 26.175 190.125 27.3L190.125 27.503124Q190.125 28.596874 190.57812 29.190624Q191.03125 29.784374 191.85938 29.784374ZM196.79688 22.675L196.79688 24.20625L197.96875 24.20625L197.96875 25.05L196.79688 25.05L196.79688 28.971874Q196.79688 29.3625 196.95312 29.55Q197.10938 29.7375 197.48438 29.7375Q197.67188 29.7375 198.0 29.675L198.0 30.55Q197.57812 30.675 197.17188 30.675Q196.45312 30.675 196.07812 30.2375Q195.70312 29.784374 195.70312 28.971874L195.70312 25.05L194.54688 25.05L194.54688 24.20625L195.70312 24.20625L195.70312 22.675L196.79688 22.675ZM199.28125 27.08125Q199.28125 25.76875 199.625 24.55Q199.98438 23.33125 200.6875 22.33125Q201.39062 21.33125 202.15625 20.925L202.375 21.64375Q201.51562 22.3 200.96875 23.64375Q200.42188 24.9875 200.375 26.659374L200.35938 27.159374Q200.35938 29.425 201.1875 31.08125Q201.6875 32.08125 202.375 32.64375L202.15625 33.3Q201.375 32.878124 200.65625 31.846874Q199.28125 29.8625 199.28125 27.08125ZM208.20312 26.784374L204.60938 26.784374L204.60938 30.55L203.48438 30.55L203.48438 22.01875L208.78125 22.01875L208.78125 22.940624L204.60938 22.940624L204.60938 25.8625L208.20312 25.8625L208.20312 26.784374ZM211.5 30.55L210.42188 30.55L210.42188 24.20625L211.5 24.20625L211.5 30.55ZM210.32812 22.534374Q210.32812 22.26875 210.48438 22.08125Q210.65625 21.89375 210.96875 21.89375Q211.28125 21.89375 211.4375 22.08125Q211.60938 22.26875 211.60938 22.534374Q211.60938 22.784374 211.4375 22.971874Q211.28125 23.14375 210.96875 23.14375Q210.65625 23.14375 210.48438 22.971874Q210.32812 22.784374 210.32812 22.534374ZM214.5 30.55L213.42188 30.55L213.42188 21.55L214.5 21.55L214.5 30.55ZM218.95312 30.675Q217.65625 30.675 216.84375 29.83125Q216.04688 28.971874 216.04688 27.55L216.04688 27.3625Q216.04688 26.409374 216.40625 25.675Q216.76562 24.925 217.40625 24.51875Q218.0625 24.096874 218.8125 24.096874Q220.04688 24.096874 220.73438 24.909374Q221.42188 25.721874 221.42188 27.2375L221.42188 27.690624L217.125 27.690624Q217.15625 28.628124 217.67188 29.20625Q218.20312 29.784374 219.01562 29.784374Q219.57812 29.784374 219.96875 29.55Q220.375 29.315624 220.6875 28.925L221.34375 29.440624Q220.54688 30.675 218.95312 30.675ZM218.8125 24.9875Q218.15625 24.9875 217.70312 25.471874Q217.26562 25.940624 217.17188 26.8L220.34375 26.8L220.34375 26.721874Q220.29688 25.89375 219.89062 25.440624Q219.5 24.9875 218.8125 24.9875ZM228.0 26.753124Q226.5625 26.33125 225.89062 25.721874Q225.23438 25.1125 225.23438 24.221874Q225.23438 23.221874 226.03125 22.565624Q226.84375 21.89375 228.14062 21.89375Q229.01562 21.89375 229.70312 22.2375Q230.39062 22.58125 230.76562 23.175Q231.15625 23.76875 231.15625 24.4875L230.01562 24.4875Q230.01562 23.70625 229.51562 23.26875Q229.03125 22.83125 228.14062 22.83125Q227.3125 22.83125 226.84375 23.20625Q226.375 23.565624 226.375 24.20625Q226.375 24.7375 226.8125 25.096874Q227.26562 25.45625 228.32812 25.753124Q229.39062 26.05 229.98438 26.409374Q230.59375 26.76875 230.875 27.253124Q231.17188 27.7375 231.17188 28.378124Q231.17188 29.425 230.35938 30.05Q229.54688 30.675 228.20312 30.675Q227.3125 30.675 226.54688 30.33125Q225.79688 29.9875 225.375 29.409374Q224.96875 28.815624 224.96875 28.08125L226.09375 28.08125Q226.09375 28.846874 226.67188 29.3Q227.25 29.753124 228.20312 29.753124Q229.09375 29.753124 229.5625 29.39375Q230.03125 29.01875 230.03125 28.39375Q230.03125 27.76875 229.59375 27.425Q229.15625 27.08125 228.0 26.753124ZM233.5 30.55L232.42188 30.55L232.42188 24.20625L233.5 24.20625L233.5 30.55ZM232.32812 22.534374Q232.32812 22.26875 232.48438 22.08125Q232.65625 21.89375 232.96875 21.89375Q233.28125 21.89375 233.4375 22.08125Q233.60938 22.26875 233.60938 22.534374Q233.60938 22.784374 233.4375 22.971874Q233.28125 23.14375 232.96875 23.14375Q232.65625 23.14375 232.48438 22.971874Q232.32812 22.784374 232.32812 22.534374ZM236.34375 29.659374L240.04688 29.659374L240.04688 30.55L235.01562 30.55L235.01562 29.753124L238.51562 25.1125L235.0625 25.1125L235.0625 24.20625L239.875 24.20625L239.875 24.971874L236.34375 29.659374ZM243.95312 30.675Q242.65625 30.675 241.84375 29.83125Q241.04688 28.971874 241.04688 27.55L241.04688 27.3625Q241.04688 26.409374 241.40625 25.675Q241.76562 24.925 242.40625 24.51875Q243.0625 24.096874 243.8125 24.096874Q245.04688 24.096874 245.73438 24.909374Q246.42188 25.721874 246.42188 27.2375L246.42188 27.690624L242.125 27.690624Q242.15625 28.628124 242.67188 29.20625Q243.20312 29.784374 244.01562 29.784374Q244.57812 29.784374 244.96875 29.55Q245.375 29.315624 245.6875 28.925L246.34375 29.440624Q245.54688 30.675 243.95312 30.675ZM243.8125 24.9875Q243.15625 24.9875 242.70312 25.471874Q242.26562 25.940624 242.17188 26.8L245.34375 26.8L245.34375 26.721874Q245.29688 25.89375 244.89062 25.440624Q244.5 24.9875 243.8125 24.9875ZM247.34375 29.9875Q247.34375 29.70625 247.5 29.51875Q247.67188 29.33125 248.0 29.33125Q248.34375 29.33125 248.51562 29.51875Q248.6875 29.70625 248.6875 29.9875Q248.6875 30.253124 248.51562 30.440624Q248.34375 30.6125 248.0 30.6125Q247.67188 30.6125 247.5 30.440624Q247.34375 30.253124 247.34375 29.9875ZM247.34375 24.9875Q247.34375 24.70625 247.5 24.51875Q247.67188 24.33125 248.0 24.33125Q248.34375 24.33125 248.51562 24.51875Q248.6875 24.70625 248.6875 24.9875Q248.6875 25.253124 248.51562 25.440624Q248.34375 25.6125 248.0 25.6125Q247.67188 25.6125 247.5 25.440624Q247.34375 25.253124 247.34375 24.9875ZM257.46875 22.01875L257.46875 22.925L257.26562 22.925Q256.0 22.95625 255.25 23.690624Q254.5 24.409374 254.375 25.721874Q255.0625 24.95625 256.21875 24.95625Q257.32812 24.95625 258.0 25.7375Q258.67188 26.51875 258.67188 27.76875Q258.67188 29.08125 257.95312 29.878124Q257.23438 30.675 256.01562 30.675Q254.79688 30.675 254.03125 29.7375Q253.28125 28.784374 253.28125 27.3L253.28125 26.89375Q253.28125 24.534374 254.28125 23.284374Q255.28125 22.034374 257.26562 22.01875L257.46875 22.01875ZM256.04688 25.8625Q255.48438 25.8625 255.01562 26.190624Q254.54688 26.51875 254.35938 27.034374L254.35938 27.425Q254.35938 28.4875 254.82812 29.128124Q255.3125 29.76875 256.01562 29.76875Q256.75 29.76875 257.17188 29.2375Q257.59375 28.690624 257.59375 27.815624Q257.59375 26.940624 257.17188 26.409374Q256.75 25.8625 256.04688 25.8625ZM264.78125 27.690624L265.96875 27.690624L265.96875 28.565624L264.78125 28.565624L264.78125 30.55L263.70312 30.55L263.70312 28.565624L259.8125 28.565624L259.8125 27.925L263.625 22.01875L264.78125 22.01875L264.78125 27.690624ZM261.04688 27.690624L263.70312 27.690624L263.70312 23.503124L263.5625 23.7375L261.04688 27.690624ZM272.65625 26.58125L271.60938 27.659374L271.60938 30.55L270.48438 30.55L270.48438 22.01875L271.60938 22.01875L271.60938 26.2375L275.40625 22.01875L276.76562 22.01875L273.40625 25.784374L277.03125 30.55L275.6875 30.55L272.65625 26.58125ZM278.48438 30.55L278.48438 22.01875L281.28125 22.01875Q282.67188 22.01875 283.35938 22.596874Q284.0625 23.159374 284.0625 24.284374Q284.0625 24.89375 283.71875 25.3625Q283.39062 25.815624 282.79688 26.065624Q283.5 26.253124 283.89062 26.8Q284.29688 27.33125 284.29688 28.08125Q284.29688 29.2375 283.54688 29.89375Q282.8125 30.55 281.45312 30.55L278.48438 30.55ZM279.60938 26.565624L279.60938 29.628124L281.46875 29.628124Q282.26562 29.628124 282.71875 29.221874Q283.17188 28.815624 283.17188 28.096874Q283.17188 26.565624 281.48438 26.565624L279.60938 26.565624ZM279.60938 25.659374L281.3125 25.659374Q282.04688 25.659374 282.48438 25.3Q282.9375 24.925 282.9375 24.284374Q282.9375 23.58125 282.53125 23.26875Q282.125 22.940624 281.28125 22.940624L279.60938 22.940624L279.60938 25.659374ZM287.82812 27.14375Q287.82812 28.45625 287.48438 29.659374Q287.14062 30.846874 286.42188 31.8625Q285.71875 32.878124 284.95312 33.3L284.71875 32.64375Q285.625 31.95625 286.17188 30.503124Q286.71875 29.034374 286.73438 27.26875L286.73438 27.08125Q286.73438 25.846874 286.46875 24.784374Q286.21875 23.721874 285.75 22.89375Q285.29688 22.05 284.71875 21.58125L284.95312 20.925Q285.71875 21.346874 286.42188 22.346874Q287.125 23.346874 287.46875 24.565624Q287.82812 25.76875 287.82812 27.14375Z" fill-rule="nonzero"/><path stroke="#db4437" stroke-width="4.0" stroke-linecap="butt" d="M304.5 26.05L316.5 26.05" fill-rule="nonzero"/><path fill="#757575" d="M326.625 29.628124L330.67188 29.628124L330.67188 30.55L325.48438 30.55L325.48438 22.01875L326.625 22.01875L326.625 29.628124ZM335.23438 30.55Q335.14062 30.3625 335.07812 29.878124Q334.32812 30.675 333.28125 30.675Q332.34375 30.675 331.73438 30.14375Q331.14062 29.6125 331.14062 28.784374Q331.14062 27.8 331.89062 27.253124Q332.64062 26.70625 334.01562 26.70625L335.0625 26.70625L335.0625 26.20625Q335.0625 25.64375 334.71875 25.315624Q334.39062 24.971874 333.71875 24.971874Q333.14062 24.971874 332.75 25.26875Q332.35938 25.55 332.35938 25.971874L331.26562 25.971874Q331.26562 25.4875 331.59375 25.05Q331.9375 24.6125 332.51562 24.3625Q333.09375 24.096874 333.78125 24.096874Q334.89062 24.096874 335.5 24.64375Q336.125 25.190624 336.15625 26.14375L336.15625 29.065624Q336.15625 29.940624 336.375 30.45625L336.375 30.55L335.23438 30.55ZM333.4375 29.721874Q333.95312 29.721874 334.40625 29.45625Q334.85938 29.190624 335.0625 28.76875L335.0625 27.471874L334.21875 27.471874Q332.21875 27.471874 332.21875 28.64375Q332.21875 29.14375 332.5625 29.440624Q332.90625 29.721874 333.4375 29.721874ZM339.79688 22.675L339.79688 24.20625L340.96875 24.20625L340.96875 25.05L339.79688 25.05L339.79688 28.971874Q339.79688 29.3625 339.95312 29.55Q340.10938 29.7375 340.48438 29.7375Q340.67188 29.7375 341.0 29.675L341.0 30.55Q340.57812 30.675 340.17188 30.675Q339.45312 30.675 339.07812 30.2375Q338.70312 29.784374 338.70312 28.971874L338.70312 25.05L337.54688 25.05L337.54688 24.20625L338.70312 24.20625L338.70312 22.675L339.79688 22.675ZM344.95312 30.675Q343.65625 30.675 342.84375 29.83125Q342.04688 28.971874 342.04688 27.55L342.04688 27.3625Q342.04688 26.409374 342.40625 25.675Q342.76562 24.925 343.40625 24.51875Q344.0625 24.096874 344.8125 24.096874Q346.04688 24.096874 346.73438 24.909374Q347.42188 25.721874 347.42188 27.2375L347.42188 27.690624L343.125 27.690624Q343.15625 28.628124 343.67188 29.20625Q344.20312 29.784374 345.01562 29.784374Q345.57812 29.784374 345.96875 29.55Q346.375 29.315624 346.6875 28.925L347.34375 29.440624Q346.54688 30.675 344.95312 30.675ZM344.8125 24.9875Q344.15625 24.9875 343.70312 25.471874Q343.26562 25.940624 343.17188 26.8L346.34375 26.8L346.34375 26.721874Q346.29688 25.89375 345.89062 25.440624Q345.5 24.9875 344.8125 24.9875ZM349.34375 24.20625L349.375 25.003124Q350.10938 24.096874 351.28125 24.096874Q353.29688 24.096874 353.3125 26.3625L353.3125 30.55L352.21875 30.55L352.21875 26.346874Q352.21875 25.675 351.90625 25.346874Q351.60938 25.01875 350.95312 25.01875Q350.42188 25.01875 350.01562 25.3Q349.625 25.58125 349.40625 26.034374L349.40625 30.55L348.32812 30.55L348.32812 24.20625L349.34375 24.20625ZM357.85938 29.784374Q358.4375 29.784374 358.875 29.440624Q359.3125 29.08125 359.35938 28.55L360.39062 28.55Q360.35938 29.096874 360.0 29.596874Q359.65625 30.08125 359.07812 30.378124Q358.51562 30.675 357.85938 30.675Q356.5625 30.675 355.79688 29.815624Q355.04688 28.940624 355.04688 27.440624L355.04688 27.253124Q355.04688 26.33125 355.375 25.6125Q355.71875 24.89375 356.34375 24.503124Q356.98438 24.096874 357.85938 24.096874Q358.92188 24.096874 359.625 24.7375Q360.34375 25.3625 360.39062 26.39375L359.35938 26.39375Q359.3125 25.76875 358.89062 25.378124Q358.46875 24.9875 357.85938 24.9875Q357.03125 24.9875 356.57812 25.58125Q356.125 26.175 356.125 27.3L356.125 27.503124Q356.125 28.596874 356.57812 29.190624Q357.03125 29.784374 357.85938 29.784374ZM363.39062 28.95625L364.875 24.20625L366.03125 24.20625L363.48438 31.534374Q362.89062 33.1125 361.60938 33.1125L361.39062 33.096874L361.0 33.01875L361.0 32.14375L361.28125 32.159374Q361.84375 32.159374 362.14062 31.940624Q362.45312 31.721874 362.65625 31.128124L362.89062 30.471874L360.625 24.20625L361.8125 24.20625L363.39062 28.95625ZM370.03125 27.315624Q370.03125 26.39375 370.39062 25.64375Q370.76562 24.89375 371.42188 24.503124Q372.07812 24.096874 372.90625 24.096874Q374.20312 24.096874 375.0 24.9875Q375.8125 25.878124 375.8125 27.378124L375.8125 27.45625Q375.8125 28.378124 375.45312 29.1125Q375.09375 29.846874 374.4375 30.26875Q373.78125 30.675 372.92188 30.675Q371.64062 30.675 370.82812 29.784374Q370.03125 28.878124 370.03125 27.39375L370.03125 27.315624ZM371.125 27.45625Q371.125 28.503124 371.60938 29.14375Q372.10938 29.784374 372.92188 29.784374Q373.75 29.784374 374.23438 29.14375Q374.71875 28.4875 374.71875 27.315624Q374.71875 26.284374 374.21875 25.64375Q373.73438 24.9875 372.90625 24.9875Q372.10938 24.9875 371.60938 25.628124Q371.125 26.253124 371.125 27.45625ZM377.85938 30.55L377.85938 25.05L376.85938 25.05L376.85938 24.20625L377.85938 24.20625L377.85938 23.565624Q377.85938 22.534374 378.39062 21.9875Q378.9375 21.425 379.9375 21.425Q380.3125 21.425 380.6875 21.51875L380.625 22.409374Q380.34375 22.346874 380.04688 22.346874Q379.51562 22.346874 379.21875 22.659374Q378.9375 22.971874 378.9375 23.534374L378.9375 24.20625L380.29688 24.20625L380.29688 25.05L378.9375 25.05L378.9375 30.55L377.85938 30.55ZM390.79688 29.425Q390.35938 30.05 389.57812 30.3625Q388.79688 30.675 387.76562 30.675Q386.73438 30.675 385.92188 30.190624Q385.10938 29.690624 384.67188 28.784374Q384.23438 27.878124 384.21875 26.690624L384.21875 25.95625Q384.21875 24.01875 385.10938 22.95625Q386.01562 21.89375 387.64062 21.89375Q388.98438 21.89375 389.79688 22.58125Q390.60938 23.26875 390.79688 24.51875L389.67188 24.51875Q389.34375 22.83125 387.65625 22.83125Q386.51562 22.83125 385.9375 23.628124Q385.35938 24.409374 385.34375 25.925L385.34375 26.6125Q385.34375 28.05 386.0 28.909374Q386.65625 29.753124 387.78125 29.753124Q388.40625 29.753124 388.875 29.6125Q389.35938 29.471874 389.67188 29.128124L389.67188 27.221874L387.70312 27.221874L387.70312 26.3L390.79688 26.3L390.79688 29.425ZM394.95312 30.675Q393.65625 30.675 392.84375 29.83125Q392.04688 28.971874 392.04688 27.55L392.04688 27.3625Q392.04688 26.409374 392.40625 25.675Q392.76562 24.925 393.40625 24.51875Q394.0625 24.096874 394.8125 24.096874Q396.04688 24.096874 396.73438 24.909374Q397.42188 25.721874 397.42188 27.2375L397.42188 27.690624L393.125 27.690624Q393.15625 28.628124 393.67188 29.20625Q394.20312 29.784374 395.01562 29.784374Q395.57812 29.784374 395.96875 29.55Q396.375 29.315624 396.6875 28.925L397.34375 29.440624Q396.54688 30.675 394.95312 30.675ZM394.8125 24.9875Q394.15625 24.9875 393.70312 25.471874Q393.26562 25.940624 393.17188 26.8L396.34375 26.8L396.34375 26.721874Q396.29688 25.89375 395.89062 25.440624Q395.5 24.9875 394.8125 24.9875ZM399.79688 22.675L399.79688 24.20625L400.96875 24.20625L400.96875 25.05L399.79688 25.05L399.79688 28.971874Q399.79688 29.3625 399.95312 29.55Q400.10938 29.7375 400.48438 29.7375Q400.67188 29.7375 401.0 29.675L401.0 30.55Q400.57812 30.675 400.17188 30.675Q399.45312 30.675 399.07812 30.2375Q398.70312 29.784374 398.70312 28.971874L398.70312 25.05L397.54688 25.05L397.54688 24.20625L398.70312 24.20625L398.70312 22.675L399.79688 22.675ZM409.04688 26.565624Q409.04688 27.815624 408.625 28.753124Q408.20312 29.675 407.42188 30.175Q406.65625 30.675 405.625 30.675Q404.625 30.675 403.84375 30.175Q403.0625 29.675 402.625 28.76875Q402.20312 27.846874 402.1875 26.628124L402.1875 26.01875Q402.1875 24.784374 402.60938 23.846874Q403.04688 22.909374 403.82812 22.409374Q404.60938 21.89375 405.625 21.89375Q406.64062 21.89375 407.42188 22.39375Q408.20312 22.89375 408.625 23.83125Q409.04688 24.76875 409.04688 26.01875L409.04688 26.565624ZM407.9375 26.003124Q407.9375 24.4875 407.32812 23.675Q406.71875 22.8625 405.625 22.8625Q404.54688 22.8625 403.9375 23.675Q403.32812 24.4875 403.3125 25.925L403.3125 26.565624Q403.3125 28.034374 403.92188 28.878124Q404.54688 29.70625 405.625 29.70625Q406.71875 29.70625 407.3125 28.925Q407.92188 28.128124 407.9375 26.64375L407.9375 26.003124ZM415.6875 27.45625Q415.6875 28.909374 415.01562 29.8Q414.35938 30.675 413.23438 30.675Q412.03125 30.675 411.375 29.815624L411.3125 30.55L410.32812 30.55L410.32812 21.55L411.40625 21.55L411.40625 24.909374Q412.0625 24.096874 413.21875 24.096874Q414.375 24.096874 415.03125 24.971874Q415.6875 25.83125 415.6875 27.3625L415.6875 27.45625ZM414.60938 27.33125Q414.60938 26.221874 414.17188 25.628124Q413.75 25.01875 412.95312 25.01875Q411.875 25.01875 411.40625 26.003124L411.40625 28.753124Q411.90625 29.753124 412.95312 29.753124Q413.73438 29.753124 414.17188 29.14375Q414.60938 28.534374 414.60938 27.33125ZM418.4375 24.20625L418.4375 31.284374Q418.4375 33.1125 416.78125 33.1125Q416.42188 33.1125 416.125 33.003124L416.125 32.14375Q416.3125 32.190624 416.60938 32.190624Q416.96875 32.190624 417.15625 31.9875Q417.35938 31.8 417.35938 31.3L417.35938 24.20625L418.4375 24.20625ZM417.25 22.534374Q417.25 22.26875 417.40625 22.08125Q417.5625 21.89375 417.875 21.89375Q418.1875 21.89375 418.34375 22.08125Q418.51562 22.26875 418.51562 22.534374Q418.51562 22.784374 418.34375 22.971874Q418.1875 23.14375 417.875 23.14375Q417.5625 23.14375 417.40625 22.971874Q417.25 22.784374 417.25 22.534374ZM422.95312 30.675Q421.65625 30.675 420.84375 29.83125Q420.04688 28.971874 420.04688 27.55L420.04688 27.3625Q420.04688 26.409374 420.40625 25.675Q420.76562 24.925 421.40625 24.51875Q422.0625 24.096874 422.8125 24.096874Q424.04688 24.096874 424.73438 24.909374Q425.42188 25.721874 425.42188 27.2375L425.42188 27.690624L421.125 27.690624Q421.15625 28.628124 421.67188 29.20625Q422.20312 29.784374 423.01562 29.784374Q423.57812 29.784374 423.96875 29.55Q424.375 29.315624 424.6875 28.925L425.34375 29.440624Q424.54688 30.675 422.95312 30.675ZM422.8125 24.9875Q422.15625 24.9875 421.70312 25.471874Q421.26562 25.940624 421.17188 26.8L424.34375 26.8L424.34375 26.721874Q424.29688 25.89375 423.89062 25.440624Q423.5 24.9875 422.8125 24.9875ZM428.85938 29.784374Q429.4375 29.784374 429.875 29.440624Q430.3125 29.08125 430.35938 28.55L431.39062 28.55Q431.35938 29.096874 431.0 29.596874Q430.65625 30.08125 430.07812 30.378124Q429.51562 30.675 428.85938 30.675Q427.5625 30.675 426.79688 29.815624Q426.04688 28.940624 426.04688 27.440624L426.04688 27.253124Q426.04688 26.33125 426.375 25.6125Q426.71875 24.89375 427.34375 24.503124Q427.98438 24.096874 428.85938 24.096874Q429.92188 24.096874 430.625 24.7375Q431.34375 25.3625 431.39062 26.39375L430.35938 26.39375Q430.3125 25.76875 429.89062 25.378124Q429.46875 24.9875 428.85938 24.9875Q428.03125 24.9875 427.57812 25.58125Q427.125 26.175 427.125 27.3L427.125 27.503124Q427.125 28.596874 427.57812 29.190624Q428.03125 29.784374 428.85938 29.784374ZM433.79688 22.675L433.79688 24.20625L434.96875 24.20625L434.96875 25.05L433.79688 25.05L433.79688 28.971874Q433.79688 29.3625 433.95312 29.55Q434.10938 29.7375 434.48438 29.7375Q434.67188 29.7375 435.0 29.675L435.0 30.55Q434.57812 30.675 434.17188 30.675Q433.45312 30.675 433.07812 30.2375Q432.70312 29.784374 432.70312 28.971874L432.70312 25.05L431.54688 25.05L431.54688 24.20625L432.70312 24.20625L432.70312 22.675L433.79688 22.675ZM436.28125 27.08125Q436.28125 25.76875 436.625 24.55Q436.98438 23.33125 437.6875 22.33125Q438.39062 21.33125 439.15625 20.925L439.375 21.64375Q438.51562 22.3 437.96875 23.64375Q437.42188 24.9875 437.375 26.659374L437.35938 27.159374Q437.35938 29.425 438.1875 31.08125Q438.6875 32.08125 439.375 32.64375L439.15625 33.3Q438.375 32.878124 437.65625 31.846874Q436.28125 29.8625 436.28125 27.08125ZM445.20312 26.784374L441.60938 26.784374L441.60938 30.55L440.48438 30.55L440.48438 22.01875L445.78125 22.01875L445.78125 22.940624L441.60938 22.940624L441.60938 25.8625L445.20312 25.8625L445.20312 26.784374ZM448.5 30.55L447.42188 30.55L447.42188 24.20625L448.5 24.20625L448.5 30.55ZM447.32812 22.534374Q447.32812 22.26875 447.48438 22.08125Q447.65625 21.89375 447.96875 21.89375Q448.28125 21.89375 448.4375 22.08125Q448.60938 22.26875 448.60938 22.534374Q448.60938 22.784374 448.4375 22.971874Q448.28125 23.14375 447.96875 23.14375Q447.65625 23.14375 447.48438 22.971874Q447.32812 22.784374 447.32812 22.534374ZM451.5 30.55L450.42188 30.55L450.42188 21.55L451.5 21.55L451.5 30.55ZM455.95312 30.675Q454.65625 30.675 453.84375 29.83125Q453.04688 28.971874 453.04688 27.55L453.04688 27.3625Q453.04688 26.409374 453.40625 25.675Q453.76562 24.925 454.40625 24.51875Q455.0625 24.096874 455.8125 24.096874Q457.04688 24.096874 457.73438 24.909374Q458.42188 25.721874 458.42188 27.2375L458.42188 27.690624L454.125 27.690624Q454.15625 28.628124 454.67188 29.20625Q455.20312 29.784374 456.01562 29.784374Q456.57812 29.784374 456.96875 29.55Q457.375 29.315624 457.6875 28.925L458.34375 29.440624Q457.54688 30.675 455.95312 30.675ZM455.8125 24.9875Q455.15625 24.9875 454.70312 25.471874Q454.26562 25.940624 454.17188 26.8L457.34375 26.8L457.34375 26.721874Q457.29688 25.89375 456.89062 25.440624Q456.5 24.9875 455.8125 24.9875ZM465.0 26.753124Q463.5625 26.33125 462.89062 25.721874Q462.23438 25.1125 462.23438 24.221874Q462.23438 23.221874 463.03125 22.565624Q463.84375 21.89375 465.14062 21.89375Q466.01562 21.89375 466.70312 22.2375Q467.39062 22.58125 467.76562 23.175Q468.15625 23.76875 468.15625 24.4875L467.01562 24.4875Q467.01562 23.70625 466.51562 23.26875Q466.03125 22.83125 465.14062 22.83125Q464.3125 22.83125 463.84375 23.20625Q463.375 23.565624 463.375 24.20625Q463.375 24.7375 463.8125 25.096874Q464.26562 25.45625 465.32812 25.753124Q466.39062 26.05 466.98438 26.409374Q467.59375 26.76875 467.875 27.253124Q468.17188 27.7375 468.17188 28.378124Q468.17188 29.425 467.35938 30.05Q466.54688 30.675 465.20312 30.675Q464.3125 30.675 463.54688 30.33125Q462.79688 29.9875 462.375 29.409374Q461.96875 28.815624 461.96875 28.08125L463.09375 28.08125Q463.09375 28.846874 463.67188 29.3Q464.25 29.753124 465.20312 29.753124Q466.09375 29.753124 466.5625 29.39375Q467.03125 29.01875 467.03125 28.39375Q467.03125 27.76875 466.59375 27.425Q466.15625 27.08125 465.0 26.753124ZM470.5 30.55L469.42188 30.55L469.42188 24.20625L470.5 24.20625L470.5 30.55ZM469.32812 22.534374Q469.32812 22.26875 469.48438 22.08125Q469.65625 21.89375 469.96875 21.89375Q470.28125 21.89375 470.4375 22.08125Q470.60938 22.26875 470.60938 22.534374Q470.60938 22.784374 470.4375 22.971874Q470.28125 23.14375 469.96875 23.14375Q469.65625 23.14375 469.48438 22.971874Q469.32812 22.784374 469.32812 22.534374ZM473.34375 29.659374L477.04688 29.659374L477.04688 30.55L472.01562 30.55L472.01562 29.753124L475.51562 25.1125L472.0625 25.1125L472.0625 24.20625L476.875 24.20625L476.875 24.971874L473.34375 29.659374ZM480.95312 30.675Q479.65625 30.675 478.84375 29.83125Q478.04688 28.971874 478.04688 27.55L478.04688 27.3625Q478.04688 26.409374 478.40625 25.675Q478.76562 24.925 479.40625 24.51875Q480.0625 24.096874 480.8125 24.096874Q482.04688 24.096874 482.73438 24.909374Q483.42188 25.721874 483.42188 27.2375L483.42188 27.690624L479.125 27.690624Q479.15625 28.628124 479.67188 29.20625Q480.20312 29.784374 481.01562 29.784374Q481.57812 29.784374 481.96875 29.55Q482.375 29.315624 482.6875 28.925L483.34375 29.440624Q482.54688 30.675 480.95312 30.675ZM480.8125 24.9875Q480.15625 24.9875 479.70312 25.471874Q479.26562 25.940624 479.17188 26.8L482.34375 26.8L482.34375 26.721874Q482.29688 25.89375 481.89062 25.440624Q481.5 24.9875 480.8125 24.9875ZM484.34375 29.9875Q484.34375 29.70625 484.5 29.51875Q484.67188 29.33125 485.0 29.33125Q485.34375 29.33125 485.51562 29.51875Q485.6875 29.70625 485.6875 29.9875Q485.6875 30.253124 485.51562 30.440624Q485.34375 30.6125 485.0 30.6125Q484.67188 30.6125 484.5 30.440624Q484.34375 30.253124 484.34375 29.9875ZM484.34375 24.9875Q484.34375 24.70625 484.5 24.51875Q484.67188 24.33125 485.0 24.33125Q485.34375 24.33125 485.51562 24.51875Q485.6875 24.70625 485.6875 24.9875Q485.6875 25.253124 485.51562 25.440624Q485.34375 25.6125 485.0 25.6125Q484.67188 25.6125 484.5 25.440624Q484.34375 25.253124 484.34375 24.9875ZM493.76562 30.55L492.6875 30.55L492.6875 23.33125L490.5 24.128124L490.5 23.14375L493.60938 21.971874L493.76562 21.971874L493.76562 30.55ZM502.79688 30.55L497.20312 30.55L497.20312 29.76875L500.15625 26.4875Q500.8125 25.7375 501.0625 25.284374Q501.3125 24.815624 501.3125 24.315624Q501.3125 23.64375 500.90625 23.221874Q500.51562 22.784374 499.82812 22.784374Q499.03125 22.784374 498.57812 23.253124Q498.125 23.70625 498.125 24.534374L497.04688 24.534374Q497.04688 23.346874 497.79688 22.628124Q498.5625 21.89375 499.82812 21.89375Q501.03125 21.89375 501.71875 22.51875Q502.40625 23.14375 502.40625 24.190624Q502.40625 25.440624 500.79688 27.190624L498.51562 29.659374L502.79688 29.659374L502.79688 30.55ZM509.39062 24.2375Q509.39062 24.878124 509.04688 25.378124Q508.70312 25.878124 508.14062 26.159374Q508.79688 26.440624 509.1875 27.003124Q509.57812 27.55 509.57812 28.253124Q509.57812 29.346874 508.82812 30.01875Q508.09375 30.675 506.875 30.675Q505.64062 30.675 504.89062 30.01875Q504.15625 29.346874 504.15625 28.253124Q504.15625 27.55 504.53125 27.003124Q504.90625 26.440624 505.57812 26.159374Q505.01562 25.878124 504.6875 25.378124Q504.35938 24.878124 504.35938 24.2375Q504.35938 23.159374 505.04688 22.534374Q505.73438 21.89375 506.875 21.89375Q508.0 21.89375 508.6875 22.534374Q509.39062 23.159374 509.39062 24.2375ZM508.5 28.221874Q508.5 27.503124 508.04688 27.065624Q507.59375 26.6125 506.85938 26.6125Q506.125 26.6125 505.67188 27.065624Q505.23438 27.503124 505.23438 28.2375Q505.23438 28.95625 505.67188 29.378124Q506.10938 29.784374 506.875 29.784374Q507.625 29.784374 508.0625 29.3625Q508.5 28.940624 508.5 28.221874ZM506.875 22.784374Q506.23438 22.784374 505.82812 23.190624Q505.4375 23.58125 505.4375 24.26875Q505.4375 24.909374 505.82812 25.315624Q506.21875 25.721874 506.85938 25.721874Q507.51562 25.721874 507.90625 25.315624Q508.29688 24.909374 508.29688 24.26875Q508.29688 23.6125 507.89062 23.20625Q507.48438 22.784374 506.875 22.784374ZM516.65625 26.58125L515.6094 27.659374L515.6094 30.55L514.4844 30.55L514.4844 22.01875L515.6094 22.01875L515.6094 26.2375L519.40625 22.01875L520.7656 22.01875L517.40625 25.784374L521.03125 30.55L519.6875 30.55L516.65625 26.58125ZM522.4844 30.55L522.4844 22.01875L525.28125 22.01875Q526.6719 22.01875 527.3594 22.596874Q528.0625 23.159374 528.0625 24.284374Q528.0625 24.89375 527.71875 25.3625Q527.3906 25.815624 526.7969 26.065624Q527.5 26.253124 527.8906 26.8Q528.2969 27.33125 528.2969 28.08125Q528.2969 29.2375 527.5469 29.89375Q526.8125 30.55 525.4531 30.55L522.4844 30.55ZM523.6094 26.565624L523.6094 29.628124L525.46875 29.628124Q526.2656 29.628124 526.71875 29.221874Q527.1719 28.815624 527.1719 28.096874Q527.1719 26.565624 525.4844 26.565624L523.6094 26.565624ZM523.6094 25.659374L525.3125 25.659374Q526.0469 25.659374 526.4844 25.3Q526.9375 24.925 526.9375 24.284374Q526.9375 23.58125 526.53125 23.26875Q526.125 22.940624 525.28125 22.940624L523.6094 22.940624L523.6094 25.659374ZM531.8281 27.14375Q531.8281 28.45625 531.4844 29.659374Q531.1406 30.846874 530.4219 31.8625Q529.71875 32.878124 528.9531 33.3L528.71875 32.64375Q529.625 31.95625 530.1719 30.503124Q530.71875 29.034374 530.7344 27.26875L530.7344 27.08125Q530.7344 25.846874 530.46875 24.784374Q530.21875 23.721874 529.75 22.89375Q529.2969 22.05 528.71875 21.58125L528.9531 20.925Q529.71875 21.346874 530.4219 22.346874Q531.125 23.346874 531.46875 24.565624Q531.8281 25.76875 531.8281 27.14375Z" fill-rule="nonzero"/><path stroke="#f4b400" stroke-width="4.0" stroke-linecap="butt" d="M186.0 45.05L198.0 45.05" fill-rule="nonzero"/><path fill="#757575" d="M208.125 48.628124L212.17188 48.628124L212.17188 49.55L206.98438 49.55L206.98438 41.01875L208.125 41.01875L208.125 48.628124ZM216.73438 49.55Q216.64062 49.3625 216.57812 48.878124Q215.82812 49.675 214.78125 49.675Q213.84375 49.675 213.23438 49.14375Q212.64062 48.6125 212.64062 47.784374Q212.64062 46.8 213.39062 46.253124Q214.14062 45.70625 215.51562 45.70625L216.5625 45.70625L216.5625 45.20625Q216.5625 44.64375 216.21875 44.315624Q215.89062 43.971874 215.21875 43.971874Q214.64062 43.971874 214.25 44.26875Q213.85938 44.55 213.85938 44.971874L212.76562 44.971874Q212.76562 44.4875 213.09375 44.05Q213.4375 43.6125 214.01562 43.3625Q214.59375 43.096874 215.28125 43.096874Q216.39062 43.096874 217.0 43.64375Q217.625 44.190624 217.65625 45.14375L217.65625 48.065624Q217.65625 48.940624 217.875 49.45625L217.875 49.55L216.73438 49.55ZM214.9375 48.721874Q215.45312 48.721874 215.90625 48.45625Q216.35938 48.190624 216.5625 47.76875L216.5625 46.471874L215.71875 46.471874Q213.71875 46.471874 213.71875 47.64375Q213.71875 48.14375 214.0625 48.440624Q214.40625 48.721874 214.9375 48.721874ZM221.29688 41.675L221.29688 43.20625L222.46875 43.20625L222.46875 44.05L221.29688 44.05L221.29688 47.971874Q221.29688 48.3625 221.45312 48.55Q221.60938 48.7375 221.98438 48.7375Q222.17188 48.7375 222.5 48.675L222.5 49.55Q222.07812 49.675 221.67188 49.675Q220.95312 49.675 220.57812 49.2375Q220.20312 48.784374 220.20312 47.971874L220.20312 44.05L219.04688 44.05L219.04688 43.20625L220.20312 43.20625L220.20312 41.675L221.29688 41.675ZM226.45312 49.675Q225.15625 49.675 224.34375 48.83125Q223.54688 47.971874 223.54688 46.55L223.54688 46.3625Q223.54688 45.409374 223.90625 44.675Q224.26562 43.925 224.90625 43.51875Q225.5625 43.096874 226.3125 43.096874Q227.54688 43.096874 228.23438 43.909374Q228.92188 44.721874 228.92188 46.2375L228.92188 46.690624L224.625 46.690624Q224.65625 47.628124 225.17188 48.20625Q225.70312 48.784374 226.51562 48.784374Q227.07812 48.784374 227.46875 48.55Q227.875 48.315624 228.1875 47.925L228.84375 48.440624Q228.04688 49.675 226.45312 49.675ZM226.3125 43.9875Q225.65625 43.9875 225.20312 44.471874Q224.76562 44.940624 224.67188 45.8L227.84375 45.8L227.84375 45.721874Q227.79688 44.89375 227.39062 44.440624Q227.0 43.9875 226.3125 43.9875ZM230.84375 43.20625L230.875 44.003124Q231.60938 43.096874 232.78125 43.096874Q234.79688 43.096874 234.8125 45.3625L234.8125 49.55L233.71875 49.55L233.71875 45.346874Q233.71875 44.675 233.40625 44.346874Q233.10938 44.01875 232.45312 44.01875Q231.92188 44.01875 231.51562 44.3Q231.125 44.58125 230.90625 45.034374L230.90625 49.55L229.82812 49.55L229.82812 43.20625L230.84375 43.20625ZM239.35938 48.784374Q239.9375 48.784374 240.375 48.440624Q240.8125 48.08125 240.85938 47.55L241.89062 47.55Q241.85938 48.096874 241.5 48.596874Q241.15625 49.08125 240.57812 49.378124Q240.01562 49.675 239.35938 49.675Q238.0625 49.675 237.29688 48.815624Q236.54688 47.940624 236.54688 46.440624L236.54688 46.253124Q236.54688 45.33125 236.875 44.6125Q237.21875 43.89375 237.84375 43.503124Q238.48438 43.096874 239.35938 43.096874Q240.42188 43.096874 241.125 43.7375Q241.84375 44.3625 241.89062 45.39375L240.85938 45.39375Q240.8125 44.76875 240.39062 44.378124Q239.96875 43.9875 239.35938 43.9875Q238.53125 43.9875 238.07812 44.58125Q237.625 45.175 237.625 46.3L237.625 46.503124Q237.625 47.596874 238.07812 48.190624Q238.53125 48.784374 239.35938 48.784374ZM244.89062 47.95625L246.375 43.20625L247.53125 43.20625L244.98438 50.534374Q244.39062 52.1125 243.10938 52.1125L242.89062 52.096874L242.5 52.01875L242.5 51.14375L242.78125 51.159374Q243.34375 51.159374 243.64062 50.940624Q243.95312 50.721874 244.15625 50.128124L244.39062 49.471874L242.125 43.20625L243.3125 43.20625L244.89062 47.95625ZM251.53125 46.315624Q251.53125 45.39375 251.89062 44.64375Q252.26562 43.89375 252.92188 43.503124Q253.57812 43.096874 254.40625 43.096874Q255.70312 43.096874 256.5 43.9875Q257.3125 44.878124 257.3125 46.378124L257.3125 46.45625Q257.3125 47.378124 256.95312 48.1125Q256.59375 48.846874 255.9375 49.26875Q255.28125 49.675 254.42188 49.675Q253.14062 49.675 252.32812 48.784374Q251.53125 47.878124 251.53125 46.39375L251.53125 46.315624ZM252.625 46.45625Q252.625 47.503124 253.10938 48.14375Q253.60938 48.784374 254.42188 48.784374Q255.25 48.784374 255.73438 48.14375Q256.21875 47.4875 256.21875 46.315624Q256.21875 45.284374 255.71875 44.64375Q255.23438 43.9875 254.40625 43.9875Q253.60938 43.9875 253.10938 44.628124Q252.625 45.253124 252.625 46.45625ZM259.35938 49.55L259.35938 44.05L258.35938 44.05L258.35938 43.20625L259.35938 43.20625L259.35938 42.565624Q259.35938 41.534374 259.89062 40.9875Q260.4375 40.425 261.4375 40.425Q261.8125 40.425 262.1875 40.51875L262.125 41.409374Q261.84375 41.346874 261.54688 41.346874Q261.01562 41.346874 260.71875 41.659374Q260.4375 41.971874 260.4375 42.534374L260.4375 43.20625L261.79688 43.20625L261.79688 44.05L260.4375 44.05L260.4375 49.55L259.35938 49.55ZM272.29688 48.425Q271.85938 49.05 271.07812 49.3625Q270.29688 49.675 269.26562 49.675Q268.23438 49.675 267.42188 49.190624Q266.60938 48.690624 266.17188 47.784374Q265.73438 46.878124 265.71875 45.690624L265.71875 44.95625Q265.71875 43.01875 266.60938 41.95625Q267.51562 40.89375 269.14062 40.89375Q270.48438 40.89375 271.29688 41.58125Q272.10938 42.26875 272.29688 43.51875L271.17188 43.51875Q270.84375 41.83125 269.15625 41.83125Q268.01562 41.83125 267.4375 42.628124Q266.85938 43.409374 266.84375 44.925L266.84375 45.6125Q266.84375 47.05 267.5 47.909374Q268.15625 48.753124 269.28125 48.753124Q269.90625 48.753124 270.375 48.6125Q270.85938 48.471874 271.17188 48.128124L271.17188 46.221874L269.20312 46.221874L269.20312 45.3L272.29688 45.3L272.29688 48.425ZM276.45312 49.675Q275.15625 49.675 274.34375 48.83125Q273.54688 47.971874 273.54688 46.55L273.54688 46.3625Q273.54688 45.409374 273.90625 44.675Q274.26562 43.925 274.90625 43.51875Q275.5625 43.096874 276.3125 43.096874Q277.54688 43.096874 278.23438 43.909374Q278.92188 44.721874 278.92188 46.2375L278.92188 46.690624L274.625 46.690624Q274.65625 47.628124 275.17188 48.20625Q275.70312 48.784374 276.51562 48.784374Q277.07812 48.784374 277.46875 48.55Q277.875 48.315624 278.1875 47.925L278.84375 48.440624Q278.04688 49.675 276.45312 49.675ZM276.3125 43.9875Q275.65625 43.9875 275.20312 44.471874Q274.76562 44.940624 274.67188 45.8L277.84375 45.8L277.84375 45.721874Q277.79688 44.89375 277.39062 44.440624Q277.0 43.9875 276.3125 43.9875ZM281.29688 41.675L281.29688 43.20625L282.46875 43.20625L282.46875 44.05L281.29688 44.05L281.29688 47.971874Q281.29688 48.3625 281.45312 48.55Q281.60938 48.7375 281.98438 48.7375Q282.17188 48.7375 282.5 48.675L282.5 49.55Q282.07812 49.675 281.67188 49.675Q280.95312 49.675 280.57812 49.2375Q280.20312 48.784374 280.20312 47.971874L280.20312 44.05L279.04688 44.05L279.04688 43.20625L280.20312 43.20625L280.20312 41.675L281.29688 41.675ZM290.54688 45.565624Q290.54688 46.815624 290.125 47.753124Q289.70312 48.675 288.92188 49.175Q288.15625 49.675 287.125 49.675Q286.125 49.675 285.34375 49.175Q284.5625 48.675 284.125 47.76875Q283.70312 46.846874 283.6875 45.628124L283.6875 45.01875Q283.6875 43.784374 284.10938 42.846874Q284.54688 41.909374 285.32812 41.409374Q286.10938 40.89375 287.125 40.89375Q288.14062 40.89375 288.92188 41.39375Q289.70312 41.89375 290.125 42.83125Q290.54688 43.76875 290.54688 45.01875L290.54688 45.565624ZM289.4375 45.003124Q289.4375 43.4875 288.82812 42.675Q288.21875 41.8625 287.125 41.8625Q286.04688 41.8625 285.4375 42.675Q284.82812 43.4875 284.8125 44.925L284.8125 45.565624Q284.8125 47.034374 285.42188 47.878124Q286.04688 48.70625 287.125 48.70625Q288.21875 48.70625 288.8125 47.925Q289.42188 47.128124 289.4375 45.64375L289.4375 45.003124ZM297.1875 46.45625Q297.1875 47.909374 296.51562 48.8Q295.85938 49.675 294.73438 49.675Q293.53125 49.675 292.875 48.815624L292.8125 49.55L291.82812 49.55L291.82812 40.55L292.90625 40.55L292.90625 43.909374Q293.5625 43.096874 294.71875 43.096874Q295.875 43.096874 296.53125 43.971874Q297.1875 44.83125 297.1875 46.3625L297.1875 46.45625ZM296.10938 46.33125Q296.10938 45.221874 295.67188 44.628124Q295.25 44.01875 294.45312 44.01875Q293.375 44.01875 292.90625 45.003124L292.90625 47.753124Q293.40625 48.753124 294.45312 48.753124Q295.23438 48.753124 295.67188 48.14375Q296.10938 47.534374 296.10938 46.33125ZM299.9375 43.20625L299.9375 50.284374Q299.9375 52.1125 298.28125 52.1125Q297.92188 52.1125 297.625 52.003124L297.625 51.14375Q297.8125 51.190624 298.10938 51.190624Q298.46875 51.190624 298.65625 50.9875Q298.85938 50.8 298.85938 50.3L298.85938 43.20625L299.9375 43.20625ZM298.75 41.534374Q298.75 41.26875 298.90625 41.08125Q299.0625 40.89375 299.375 40.89375Q299.6875 40.89375 299.84375 41.08125Q300.01562 41.26875 300.01562 41.534374Q300.01562 41.784374 299.84375 41.971874Q299.6875 42.14375 299.375 42.14375Q299.0625 42.14375 298.90625 41.971874Q298.75 41.784374 298.75 41.534374ZM304.45312 49.675Q303.15625 49.675 302.34375 48.83125Q301.54688 47.971874 301.54688 46.55L301.54688 46.3625Q301.54688 45.409374 301.90625 44.675Q302.26562 43.925 302.90625 43.51875Q303.5625 43.096874 304.3125 43.096874Q305.54688 43.096874 306.23438 43.909374Q306.92188 44.721874 306.92188 46.2375L306.92188 46.690624L302.625 46.690624Q302.65625 47.628124 303.17188 48.20625Q303.70312 48.784374 304.51562 48.784374Q305.07812 48.784374 305.46875 48.55Q305.875 48.315624 306.1875 47.925L306.84375 48.440624Q306.04688 49.675 304.45312 49.675ZM304.3125 43.9875Q303.65625 43.9875 303.20312 44.471874Q302.76562 44.940624 302.67188 45.8L305.84375 45.8L305.84375 45.721874Q305.79688 44.89375 305.39062 44.440624Q305.0 43.9875 304.3125 43.9875ZM310.35938 48.784374Q310.9375 48.784374 311.375 48.440624Q311.8125 48.08125 311.85938 47.55L312.89062 47.55Q312.85938 48.096874 312.5 48.596874Q312.15625 49.08125 311.57812 49.378124Q311.01562 49.675 310.35938 49.675Q309.0625 49.675 308.29688 48.815624Q307.54688 47.940624 307.54688 46.440624L307.54688 46.253124Q307.54688 45.33125 307.875 44.6125Q308.21875 43.89375 308.84375 43.503124Q309.48438 43.096874 310.35938 43.096874Q311.42188 43.096874 312.125 43.7375Q312.84375 44.3625 312.89062 45.39375L311.85938 45.39375Q311.8125 44.76875 311.39062 44.378124Q310.96875 43.9875 310.35938 43.9875Q309.53125 43.9875 309.07812 44.58125Q308.625 45.175 308.625 46.3L308.625 46.503124Q308.625 47.596874 309.07812 48.190624Q309.53125 48.784374 310.35938 48.784374ZM315.29688 41.675L315.29688 43.20625L316.46875 43.20625L316.46875 44.05L315.29688 44.05L315.29688 47.971874Q315.29688 48.3625 315.45312 48.55Q315.60938 48.7375 315.98438 48.7375Q316.17188 48.7375 316.5 48.675L316.5 49.55Q316.07812 49.675 315.67188 49.675Q314.95312 49.675 314.57812 49.2375Q314.20312 48.784374 314.20312 47.971874L314.20312 44.05L313.04688 44.05L313.04688 43.20625L314.20312 43.20625L314.20312 41.675L315.29688 41.675ZM317.78125 46.08125Q317.78125 44.76875 318.125 43.55Q318.48438 42.33125 319.1875 41.33125Q319.89062 40.33125 320.65625 39.925L320.875 40.64375Q320.01562 41.3 319.46875 42.64375Q318.92188 43.9875 318.875 45.659374L318.85938 46.159374Q318.85938 48.425 319.6875 50.08125Q320.1875 51.08125 320.875 51.64375L320.65625 52.3Q319.875 51.878124 319.15625 50.846874Q317.78125 48.8625 317.78125 46.08125ZM326.70312 45.784374L323.10938 45.784374L323.10938 49.55L321.98438 49.55L321.98438 41.01875L327.28125 41.01875L327.28125 41.940624L323.10938 41.940624L323.10938 44.8625L326.70312 44.8625L326.70312 45.784374ZM330.0 49.55L328.92188 49.55L328.92188 43.20625L330.0 43.20625L330.0 49.55ZM328.82812 41.534374Q328.82812 41.26875 328.98438 41.08125Q329.15625 40.89375 329.46875 40.89375Q329.78125 40.89375 329.9375 41.08125Q330.10938 41.26875 330.10938 41.534374Q330.10938 41.784374 329.9375 41.971874Q329.78125 42.14375 329.46875 42.14375Q329.15625 42.14375 328.98438 41.971874Q328.82812 41.784374 328.82812 41.534374ZM333.0 49.55L331.92188 49.55L331.92188 40.55L333.0 40.55L333.0 49.55ZM337.45312 49.675Q336.15625 49.675 335.34375 48.83125Q334.54688 47.971874 334.54688 46.55L334.54688 46.3625Q334.54688 45.409374 334.90625 44.675Q335.26562 43.925 335.90625 43.51875Q336.5625 43.096874 337.3125 43.096874Q338.54688 43.096874 339.23438 43.909374Q339.92188 44.721874 339.92188 46.2375L339.92188 46.690624L335.625 46.690624Q335.65625 47.628124 336.17188 48.20625Q336.70312 48.784374 337.51562 48.784374Q338.07812 48.784374 338.46875 48.55Q338.875 48.315624 339.1875 47.925L339.84375 48.440624Q339.04688 49.675 337.45312 49.675ZM337.3125 43.9875Q336.65625 43.9875 336.20312 44.471874Q335.76562 44.940624 335.67188 45.8L338.84375 45.8L338.84375 45.721874Q338.79688 44.89375 338.39062 44.440624Q338.0 43.9875 337.3125 43.9875ZM346.5 45.753124Q345.0625 45.33125 344.39062 44.721874Q343.73438 44.1125 343.73438 43.221874Q343.73438 42.221874 344.53125 41.565624Q345.34375 40.89375 346.64062 40.89375Q347.51562 40.89375 348.20312 41.2375Q348.89062 41.58125 349.26562 42.175Q349.65625 42.76875 349.65625 43.4875L348.51562 43.4875Q348.51562 42.70625 348.01562 42.26875Q347.53125 41.83125 346.64062 41.83125Q345.8125 41.83125 345.34375 42.20625Q344.875 42.565624 344.875 43.20625Q344.875 43.7375 345.3125 44.096874Q345.76562 44.45625 346.82812 44.753124Q347.89062 45.05 348.48438 45.409374Q349.09375 45.76875 349.375 46.253124Q349.67188 46.7375 349.67188 47.378124Q349.67188 48.425 348.85938 49.05Q348.04688 49.675 346.70312 49.675Q345.8125 49.675 345.04688 49.33125Q344.29688 48.9875 343.875 48.409374Q343.46875 47.815624 343.46875 47.08125L344.59375 47.08125Q344.59375 47.846874 345.17188 48.3Q345.75 48.753124 346.70312 48.753124Q347.59375 48.753124 348.0625 48.39375Q348.53125 48.01875 348.53125 47.39375Q348.53125 46.76875 348.09375 46.425Q347.65625 46.08125 346.5 45.753124ZM352.0 49.55L350.92188 49.55L350.92188 43.20625L352.0 43.20625L352.0 49.55ZM350.82812 41.534374Q350.82812 41.26875 350.98438 41.08125Q351.15625 40.89375 351.46875 40.89375Q351.78125 40.89375 351.9375 41.08125Q352.10938 41.26875 352.10938 41.534374Q352.10938 41.784374 351.9375 41.971874Q351.78125 42.14375 351.46875 42.14375Q351.15625 42.14375 350.98438 41.971874Q350.82812 41.784374 350.82812 41.534374ZM354.84375 48.659374L358.54688 48.659374L358.54688 49.55L353.51562 49.55L353.51562 48.753124L357.01562 44.1125L353.5625 44.1125L353.5625 43.20625L358.375 43.20625L358.375 43.971874L354.84375 48.659374ZM362.45312 49.675Q361.15625 49.675 360.34375 48.83125Q359.54688 47.971874 359.54688 46.55L359.54688 46.3625Q359.54688 45.409374 359.90625 44.675Q360.26562 43.925 360.90625 43.51875Q361.5625 43.096874 362.3125 43.096874Q363.54688 43.096874 364.23438 43.909374Q364.92188 44.721874 364.92188 46.2375L364.92188 46.690624L360.625 46.690624Q360.65625 47.628124 361.17188 48.20625Q361.70312 48.784374 362.51562 48.784374Q363.07812 48.784374 363.46875 48.55Q363.875 48.315624 364.1875 47.925L364.84375 48.440624Q364.04688 49.675 362.45312 49.675ZM362.3125 43.9875Q361.65625 43.9875 361.20312 44.471874Q360.76562 44.940624 360.67188 45.8L363.84375 45.8L363.84375 45.721874Q363.79688 44.89375 363.39062 44.440624Q363.0 43.9875 362.3125 43.9875ZM365.84375 48.9875Q365.84375 48.70625 366.0 48.51875Q366.17188 48.33125 366.5 48.33125Q366.84375 48.33125 367.01562 48.51875Q367.1875 48.70625 367.1875 48.9875Q367.1875 49.253124 367.01562 49.440624Q366.84375 49.6125 366.5 49.6125Q366.17188 49.6125 366.0 49.440624Q365.84375 49.253124 365.84375 48.9875ZM365.84375 43.9875Q365.84375 43.70625 366.0 43.51875Q366.17188 43.33125 366.5 43.33125Q366.84375 43.33125 367.01562 43.51875Q367.1875 43.70625 367.1875 43.9875Q367.1875 44.253124 367.01562 44.440624Q366.84375 44.6125 366.5 44.6125Q366.17188 44.6125 366.0 44.440624Q365.84375 44.253124 365.84375 43.9875ZM377.29688 49.55L371.70312 49.55L371.70312 48.76875L374.65625 45.4875Q375.3125 44.7375 375.5625 44.284374Q375.8125 43.815624 375.8125 43.315624Q375.8125 42.64375 375.40625 42.221874Q375.01562 41.784374 374.32812 41.784374Q373.53125 41.784374 373.07812 42.253124Q372.625 42.70625 372.625 43.534374L371.54688 43.534374Q371.54688 42.346874 372.29688 41.628124Q373.0625 40.89375 374.32812 40.89375Q375.53125 40.89375 376.21875 41.51875Q376.90625 42.14375 376.90625 43.190624Q376.90625 44.440624 375.29688 46.190624L373.01562 48.659374L377.29688 48.659374L377.29688 49.55ZM379.20312 45.26875L379.64062 41.01875L384.01562 41.01875L384.01562 42.01875L380.5625 42.01875L380.29688 44.346874Q380.9375 43.971874 381.73438 43.971874Q382.89062 43.971874 383.57812 44.753124Q384.26562 45.51875 384.26562 46.83125Q384.26562 48.14375 383.54688 48.909374Q382.84375 49.675 381.5625 49.675Q380.4375 49.675 379.71875 49.05Q379.0 48.409374 378.90625 47.3L379.92188 47.3Q380.03125 48.034374 380.45312 48.409374Q380.875 48.784374 381.5625 48.784374Q382.3125 48.784374 382.75 48.26875Q383.1875 47.753124 383.1875 46.846874Q383.1875 45.9875 382.71875 45.471874Q382.25 44.95625 381.46875 44.95625Q380.76562 44.95625 380.35938 45.253124L380.07812 45.4875L379.20312 45.26875ZM389.96875 41.01875L389.96875 41.925L389.76562 41.925Q388.5 41.95625 387.75 42.690624Q387.0 43.409374 386.875 44.721874Q387.5625 43.95625 388.71875 43.95625Q389.82812 43.95625 390.5 44.7375Q391.17188 45.51875 391.17188 46.76875Q391.17188 48.08125 390.45312 48.878124Q389.73438 49.675 388.51562 49.675Q387.29688 49.675 386.53125 48.7375Q385.78125 47.784374 385.78125 46.3L385.78125 45.89375Q385.78125 43.534374 386.78125 42.284374Q387.78125 41.034374 389.76562 41.01875L389.96875 41.01875ZM388.54688 44.8625Q387.98438 44.8625 387.51562 45.190624Q387.04688 45.51875 386.85938 46.034374L386.85938 46.425Q386.85938 47.4875 387.32812 48.128124Q387.8125 48.76875 388.51562 48.76875Q389.25 48.76875 389.67188 48.2375Q390.09375 47.690624 390.09375 46.815624Q390.09375 45.940624 389.67188 45.409374Q389.25 44.8625 388.54688 44.8625ZM398.15625 45.58125L397.10938 46.659374L397.10938 49.55L395.98438 49.55L395.98438 41.01875L397.10938 41.01875L397.10938 45.2375L400.90625 41.01875L402.26562 41.01875L398.90625 44.784374L402.53125 49.55L401.1875 49.55L398.15625 45.58125ZM403.98438 49.55L403.98438 41.01875L406.78125 41.01875Q408.17188 41.01875 408.85938 41.596874Q409.5625 42.159374 409.5625 43.284374Q409.5625 43.89375 409.21875 44.3625Q408.89062 44.815624 408.29688 45.065624Q409.0 45.253124 409.39062 45.8Q409.79688 46.33125 409.79688 47.08125Q409.79688 48.2375 409.04688 48.89375Q408.3125 49.55 406.95312 49.55L403.98438 49.55ZM405.10938 45.565624L405.10938 48.628124L406.96875 48.628124Q407.76562 48.628124 408.21875 48.221874Q408.67188 47.815624 408.67188 47.096874Q408.67188 45.565624 406.98438 45.565624L405.10938 45.565624ZM405.10938 44.659374L406.8125 44.659374Q407.54688 44.659374 407.98438 44.3Q408.4375 43.925 408.4375 43.284374Q408.4375 42.58125 408.03125 42.26875Q407.625 41.940624 406.78125 41.940624L405.10938 41.940624L405.10938 44.659374ZM413.32812 46.14375Q413.32812 47.45625 412.98438 48.659374Q412.64062 49.846874 411.92188 50.8625Q411.21875 51.878124 410.45312 52.3L410.21875 51.64375Q411.125 50.95625 411.67188 49.503124Q412.21875 48.034374 412.23438 46.26875L412.23438 46.08125Q412.23438 44.846874 411.96875 43.784374Q411.71875 42.721874 411.25 41.89375Q410.79688 41.05 410.21875 40.58125L410.45312 39.925Q411.21875 40.346874 411.92188 41.346874Q412.625 42.346874 412.96875 43.565624Q413.32812 44.76875 413.32812 46.14375Z" fill-rule="nonzero"/></svg>